<?xml version="1.0" encoding="utf-8"?>
<!-- Generator: Adobe Illustrator 25.0.1, SVG Export Plug-In . SVG Version: 6.00 Build 0)  -->
<svg version="1.1" id="Layer_1" xmlns="http://www.w3.org/2000/svg" xmlns:xlink="http://www.w3.org/1999/xlink" x="0px" y="0px"
	 viewBox="0 0 505.2 505.2" style="enable-background:new 0 0 505.2 505.2;" xml:space="preserve">
<style type="text/css">
	.st0{fill:#00C9FF;}
	.st1{fill:#FFFFFF;}
	.st2{fill:#00278A;}
	.st3{fill:#002CF1;}
	.st4{clip-path:url(#SVGID_2_);}
	.st5{fill:#008BFF;}
	.st6{fill:none;stroke:#0085FF;stroke-width:3;stroke-linecap:round;stroke-linejoin:round;stroke-miterlimit:10;}
	.st7{fill:#FFC900;}
	.st8{fill:#FFAF00;}
	.st9{fill:#FFC900;stroke:#FFC900;stroke-width:6;stroke-linecap:round;stroke-linejoin:round;stroke-miterlimit:10;}
	.st10{fill:none;stroke:#FFC900;stroke-width:3;stroke-linecap:round;stroke-linejoin:round;stroke-miterlimit:10;}
	.st11{fill:#00204C;}
	.st12{fill:#F614AE;}
	.st13{fill:none;stroke:#00278A;stroke-width:3;stroke-linecap:round;stroke-linejoin:round;stroke-miterlimit:10;}
	.st14{fill:#0000FD;}
	.st15{fill:#005AFD;}
	.st16{clip-path:url(#SVGID_4_);}
	.st17{fill:#AEC9FF;}
	.st18{fill:#C0DFFF;}
	.st19{fill:none;stroke:#008BFF;stroke-width:3;stroke-linecap:round;stroke-linejoin:round;stroke-miterlimit:10;}
	.st20{enable-background:new    ;}
</style>
<g id="Layer_10">
	<circle class="st0" cx="252.6" cy="252.6" r="252.6"/>
</g>
<g id="Layer_10_copy_3">
	<g>
		<g>
			<path class="st1" d="M106.7,441c-0.6,0-1.1-0.2-1.5-0.5c-22.9-18-42.2-39.8-57.2-64.7c-0.4-0.7-0.5-1.5-0.2-2.3s1-1.3,1.8-1.5
				l2.5-0.5c0.3-0.1,0.6-0.1,0.8-0.1c0.4,0,0.8,0.1,1.2,0.2L179.4,410c1.7,0.5,2.8,2,2.8,3.8s-1.1,3.3-2.8,3.8l-72,23.3
				C107.2,441,107,441,106.7,441z"/>
			<g>
				<path class="st1" d="M52.9,373.9c0.2,0,0.3,0,0.4,0.1l125.3,38.4c0.6,0.2,1.1,0.8,1.1,1.4s-0.4,1.2-1,1.4l-72,23.3
					c-22.5-17.7-41.8-39.4-56.6-64.1l2.5-0.5C52.7,373.9,52.8,373.9,52.9,373.9 M52.9,368.9c-0.5,0-0.9,0-1.4,0.1l-2.5,0.5
					c-1.6,0.3-2.9,1.4-3.5,2.9s-0.5,3.2,0.3,4.6c15.2,25.2,34.7,47.2,57.8,65.4c0.9,0.7,2,1.1,3.1,1.1c0.5,0,1-0.1,1.5-0.2l72-23.3
					c2.7-0.9,4.5-3.4,4.5-6.2c0-2.9-1.9-5.3-4.6-6.2L54.8,369.2C54.2,369,53.6,368.9,52.9,368.9L52.9,368.9z"/>
			</g>
		</g>
		<g>
			<path class="st1" d="M111.6,444.7c-0.5,0-1.1-0.2-1.5-0.5c-0.6-0.5-1.2-0.9-1.8-1.4l-0.6-0.5c-0.7-0.6-1.1-1.5-0.9-2.4
				s0.8-1.7,1.7-2l70.3-22.8c0.6-0.2,1.1-0.8,1-1.4s-0.4-1.2-1.1-1.4L53.4,373.9c-0.1,0-0.3-0.1-0.4-0.1c-0.1,0-0.2,0-0.3,0
				l-3.3,0.7c-0.2,0-0.4,0.1-0.5,0.1c-0.9,0-1.7-0.5-2.2-1.2l-0.4-0.7c-0.3-0.5-0.6-1-0.9-1.6c-0.4-0.7-0.4-1.5-0.1-2.3
				s1-1.3,1.8-1.4l4.1-0.9c0.6-0.1,1.3-0.2,1.9-0.2c0.9,0,1.8,0.1,2.6,0.4L181,405.1c3.8,1.2,6.3,4.6,6.4,8.5c0,4-2.5,7.4-6.2,8.6
				l-68.7,22.2C112.1,444.7,111.8,444.7,111.6,444.7z"/>
			<g>
				<path class="st1" d="M52.9,368.9c0.6,0,1.3,0.1,1.9,0.3l125.3,38.4c2.7,0.8,4.6,3.3,4.6,6.2c0,2.9-1.8,5.4-4.5,6.2l-68.7,22.2
					c-0.8-0.6-1.6-1.2-2.4-1.8l70.3-22.8c1.7-0.5,2.8-2.1,2.8-3.8c0-1.8-1.1-3.3-2.8-3.8L54.1,371.6c-0.4-0.1-0.8-0.2-1.2-0.2
					c-0.3,0-0.6,0-0.8,0.1l-3.3,0.7c-0.4-0.8-0.9-1.5-1.3-2.3l4.1-0.9C52,368.9,52.5,368.9,52.9,368.9 M52.9,363.9
					c-0.8,0-1.6,0.1-2.4,0.2l-4.1,0.9c-1.6,0.3-2.9,1.4-3.5,2.9c-0.7,1.5-0.6,3.1,0.2,4.5c0.3,0.5,0.6,1.1,1,1.6l0.4,0.7
					c0.9,1.5,2.6,2.5,4.3,2.5c0.3,0,0.7,0,1.1-0.1l3-0.7l122,37.4l-67.3,21.8c-1.8,0.6-3.1,2.1-3.4,3.9s0.4,3.7,1.9,4.8l0.6,0.4
					c0.6,0.5,1.3,1,1.9,1.5c0.9,0.6,1.9,1,3,1c0.5,0,1-0.1,1.5-0.2l68.7-22.2c4.8-1.5,8-6,8-11s-3.3-9.4-8.1-10.9L56.3,364.4
					C55.2,364,54,363.9,52.9,363.9L52.9,363.9z"/>
			</g>
		</g>
		<g>
			<path class="st1" d="M109.1,442.9c-0.5,0-1.1-0.2-1.5-0.5c0,0-1.1-0.9-1.5-1.1c-0.7-0.6-1.1-1.5-0.9-2.4s0.8-1.7,1.7-2l71.3-23.1
				L52.9,375.4l-2.8,0.6c-0.2,0-0.4,0.1-0.5,0.1c-0.9,0-1.7-0.5-2.2-1.2l-0.8-1.4c-0.4-0.7-0.5-1.5-0.1-2.3s1-1.3,1.8-1.4l3.3-0.7
				c0.5-0.1,0.9-0.1,1.4-0.1c0.6,0,1.3,0.1,1.9,0.3l125.3,38.4c2.7,0.8,4.6,3.3,4.6,6.2c0,2.9-1.8,5.4-4.5,6.2L110,442.9
				C109.7,442.8,109.4,442.9,109.1,442.9z"/>
			<g>
				<path class="st1" d="M52.9,371.4c0.4,0,0.8,0.1,1.2,0.2L179.4,410c1.7,0.5,2.8,2,2.8,3.8s-1.1,3.3-2.8,3.8l-70.3,22.8
					c-0.5-0.4-1-0.7-1.4-1.1l71.3-23.1c1-0.3,1.7-1.3,1.7-2.4s-0.7-2-1.8-2.4L53.7,373c-0.2-0.1-0.5-0.1-0.7-0.1s-0.3,0-0.5,0.1
					l-2.8,0.6c-0.3-0.5-0.5-0.9-0.8-1.4l3.3-0.7C52.4,371.4,52.7,371.4,52.9,371.4 M52.9,366.4c-0.6,0-1.3,0.1-1.9,0.2l-3.3,0.7
					c-1.6,0.3-2.9,1.4-3.5,2.9s-0.5,3.2,0.3,4.5c0.3,0.5,0.5,0.9,0.8,1.4c0.9,1.5,2.6,2.4,4.3,2.4c0.3,0,0.7,0,1.1-0.1l2.2-0.5
					L170,413.8l-63.8,20.6c-1.8,0.6-3.1,2.1-3.4,3.9s0.4,3.7,1.9,4.8c0.3,0.3,0.7,0.5,1.1,0.8l0.4,0.3c0.9,0.7,1.9,1,3,1
					c0.5,0,1-0.1,1.5-0.2l70.3-22.8c3.8-1.2,6.3-4.7,6.2-8.6c0-4-2.6-7.4-6.4-8.5L55.5,366.8C54.7,366.5,53.8,366.4,52.9,366.4
					L52.9,366.4z"/>
			</g>
		</g>
		<g>
			<path class="st1" d="M50.1,377c-1.2,0-2.2-0.8-2.4-2c-0.3-1.4,0.6-2.7,1.9-3l2.5-0.5c0.2,0,0.4-0.1,0.5-0.1c1.2,0,2.2,0.8,2.4,2
				c0.3,1.4-0.6,2.7-1.9,3l-2.5,0.5C50.5,376.9,50.3,377,50.1,377z"/>
			<g>
				<path class="st1" d="M52.6,373.9l-2.5,0.5L52.6,373.9 M52.6,368.9c-0.3,0-0.7,0-1.1,0.1l-2.5,0.5c-2.7,0.6-4.4,3.2-3.8,6
					c0.5,2.3,2.6,3.9,4.9,3.9c0.3,0,0.7,0,1.1-0.1l2.5-0.5c2.7-0.6,4.4-3.2,3.8-6C57,370.5,54.9,368.9,52.6,368.9L52.6,368.9z"/>
			</g>
		</g>
		<g>
			<path class="st1" d="M107.7,441.8c-0.6,0-1.1-0.2-1.5-0.5l-0.5-0.4c-0.7-0.6-1.1-1.5-0.9-2.4s0.8-1.7,1.7-2l70.1-22.7L52.9,375.9
				l-2.5,0.5c-0.2,0-0.4,0.1-0.5,0.1c-0.9,0-1.7-0.5-2.1-1.2l-0.3-0.5c-0.4-0.7-0.5-1.5-0.2-2.3s1-1.3,1.8-1.5l2.8-0.6
				c0.4-0.1,0.7-0.1,1.1-0.1c0.5,0,1,0.1,1.5,0.2L179.7,409c2.1,0.6,3.5,2.5,3.5,4.7s-1.4,4.1-3.5,4.8l-71.3,23.1
				C108.2,441.7,107.9,441.8,107.7,441.8z"/>
			<g>
				<path class="st1" d="M52.9,372.9c0.2,0,0.5,0,0.7,0.1L179,411.4c1.1,0.3,1.8,1.3,1.8,2.4s-0.7,2.1-1.7,2.4l-71.3,23.1
					c-0.2-0.1-0.3-0.2-0.5-0.4l71.7-23.2c0.8-0.3,1.4-1,1.4-1.9s-0.6-1.6-1.4-1.9L53.5,373.5c-0.2-0.1-0.4-0.1-0.6-0.1
					c-0.1,0-0.3,0-0.4,0l-2.7,0.6c-0.1-0.1-0.2-0.3-0.3-0.5l2.8-0.6C52.6,372.9,52.8,372.9,52.9,372.9 M52.9,367.9
					c-0.5,0-1,0.1-1.6,0.2l-2.8,0.6c-1.6,0.3-2.9,1.4-3.5,2.9s-0.5,3.2,0.3,4.5l0.1,0.2l0.2,0.3c0.9,1.5,2.6,2.4,4.3,2.4
					c0.3,0,0.7,0,1.1-0.1l1.9-0.4l115.5,35.4l-62.6,20.3c-1.8,0.6-3.1,2.1-3.4,3.9s0.4,3.7,1.8,4.8c0.1,0.1,0.2,0.2,0.3,0.2l0.2,0.1
					c0.9,0.7,2,1,3.1,1c0.5,0,1-0.1,1.5-0.2l71.3-23.1c3.1-1,5.2-3.9,5.2-7.2c0-3.3-2.2-6.1-5.3-7.1L55.2,368.2
					C54.4,368,53.7,367.9,52.9,367.9L52.9,367.9z"/>
			</g>
		</g>
		<g>
			<path class="st1" d="M107.2,441.4c-0.6,0-1.1-0.2-1.5-0.5l-0.5-0.4c-0.7-0.6-1.1-1.5-0.9-2.4s0.8-1.7,1.7-1.9l69-22.3L53,376.5
				l-2.2,0.5c-0.2,0-0.4,0.1-0.5,0.1c-0.9,0-1.7-0.5-2.1-1.2l-0.3-0.5c-0.4-0.7-0.5-1.5-0.2-2.3s1-1.3,1.8-1.5L52,371
				c0.3-0.1,0.6-0.1,1-0.1c0.5,0,0.9,0.1,1.3,0.2l125.3,38.4c1.9,0.6,3.2,2.3,3.2,4.3s-1.2,3.7-3.1,4.3L108,441.3
				C107.7,441.4,107.5,441.4,107.2,441.4z"/>
			<g>
				<path class="st1" d="M52.9,373.4c0.2,0,0.4,0,0.6,0.1l125.3,38.4c0.8,0.3,1.4,1,1.4,1.9s-0.6,1.6-1.4,1.9l-71.7,23.2
					c-0.2-0.1-0.3-0.2-0.5-0.4l72-23.3c0.6-0.2,1-0.8,1-1.4c0-0.7-0.4-1.2-1.1-1.4L53.4,374c-0.1,0-0.3-0.1-0.4-0.1
					c-0.1,0-0.2,0-0.3,0l-2.5,0.5c-0.1-0.1-0.2-0.3-0.3-0.5l2.7-0.6C52.6,373.4,52.8,373.4,52.9,373.4 M52.9,368.4
					c-0.5,0-1,0-1.5,0.2l-2.7,0.6c-1.6,0.3-2.9,1.4-3.5,2.9s-0.5,3.2,0.3,4.6l0.1,0.2l0.2,0.3c0.9,1.5,2.5,2.4,4.3,2.4
					c0.3,0,0.7,0,1.1-0.1l1.6-0.4L166.6,414l-61.4,19.9c-1.8,0.6-3.1,2.1-3.4,3.9s0.4,3.7,1.8,4.8c0.1,0.1,0.2,0.2,0.3,0.2l0.2,0.1
					c0.9,0.7,2,1.1,3.1,1.1c0.5,0,1-0.1,1.5-0.2l71.7-23.2c2.9-0.9,4.9-3.6,4.8-6.7c0-3.1-2-5.7-4.9-6.6L54.9,368.7
					C54.3,368.5,53.6,368.4,52.9,368.4L52.9,368.4z"/>
			</g>
		</g>
	</g>
</g>
<g id="Layer_10_copy_5">
	<g>
		<path class="st1" d="M104.8,439.5c-0.6,0-1.1-0.2-1.6-0.5c0,0-2.3-1.9-2.6-2.1c-45-37.1-74.8-89.2-83.9-146.5l-0.1-0.6
			c0-0.3-0.1-0.6-0.1-0.9s-0.2-1.6-0.2-1.6c-0.1-0.8,0.2-1.6,0.7-2.1s1.1-0.7,1.7-0.7c0.1,0,0.3,0,0.4,0l117.4,20.3
			c1.1,0.2,2.1,0.8,2.7,1.8c0.6,0.9,0.8,2.1,0.5,3.2l-32.5,128.1c-0.2,0.8-0.8,1.5-1.6,1.8C105.4,439.5,105.1,439.5,104.8,439.5z"/>
		<path class="st1" d="M18.8,286.8l117.4,20.3c0.4,0.1,0.8,0.3,1,0.7c0.2,0.4,0.3,0.8,0.2,1.2l-32.6,128c-0.4-0.3-0.9-0.7-1.3-1
			s-0.9-0.7-1.3-1c-43.4-35.8-73.8-86.9-83-145c-0.1-0.5-0.2-1-0.2-1.6C18.9,287.9,18.9,287.3,18.8,286.8 M18.8,281.8
			c-1.3,0-2.5,0.5-3.5,1.4c-1.1,1.1-1.7,2.7-1.5,4.3c0,0.2,0.1,0.4,0.1,0.6c0,0.3,0.1,0.6,0.1,1c0.1,0.3,0.1,0.7,0.2,1l0.1,0.6
			c9.2,57.9,39.3,110.5,84.8,148.1c0.3,0.2,0.5,0.4,0.8,0.6c0.2,0.1,0.3,0.3,0.5,0.4c0.4,0.3,0.7,0.6,1.1,0.9l0.2,0.2
			c0.9,0.7,2,1.1,3.1,1.1c0.5,0,1.1-0.1,1.6-0.3c1.6-0.5,2.8-1.9,3.3-3.5l32.5-128.1c0.4-1.8,0.1-3.6-0.9-5.1s-2.6-2.6-4.3-2.9
			L19.7,281.8C19.4,281.8,19.1,281.8,18.8,281.8L18.8,281.8z"/>
	</g>
</g>
<g id="Layer_24">
	<g>
		<path class="st1" d="M155.2,444.3c-0.5,0-0.9,0-1.4-0.1c-2.3-0.4-4.4-1.6-5.7-3.5l-0.6-0.9c-1.4-1.9-1.9-4.2-1.6-6.5
			c0-0.2,0.1-0.3,0.1-0.5l-3.1,1.3c-1.1,0.5-2.2,0.7-3.4,0.7c-1.1,0-2.2-0.2-3.3-0.6c-2.2-0.9-3.9-2.6-4.8-4.7l-0.4-1
			c-0.9-2.2-0.9-4.5-0.1-6.7c0.2-0.5,0.5-1.1,0.8-1.6c-1.6,0-3.1-0.5-4.5-1.3c-2-1.2-3.4-3.2-3.9-5.5l-0.2-1.1
			c-0.5-2.3-0.2-4.6,1.1-6.6c0.5-0.9,1.2-1.6,2-2.2c-2.5-1.1-4.5-3.3-5.1-6.1l-0.2-1.1c-1.1-4.7,1.8-9.5,6.5-10.6l15.7-3.7
			c0-0.1,0-0.1,0-0.2l-7.1-0.7c-4.8-0.5-8.2-4.8-7.7-9.5c0.1-1.2,0.8-2.4,1.9-3c0.7-0.4,14.1-8.7,29.2-13.3
			c-36.9-5.1-55.4-17-67.5-27.1c-22.7-19.4-34.5-47.2-34.1-80.5c0.3-26.1,8.1-54.9,21.8-81.1c0.2-0.4,0.4-0.8,0.6-1.1
			c0.3-0.5,0.8-1.4,1.4-2.6l0.2-0.4l0.2-0.2c0-0.1,0.2-0.2,0.2-0.2l0.2-0.2l0.1-0.1c0.2-5,1.5-12.9,7.8-19.2l2.7-15.8
			c0.4-2.2,1.6-4.1,3.4-5.4c1.4-1,3.1-1.5,4.8-1.5c0.5,0,1,0,1.4,0.1l1,0.2c2.2,0.4,4.1,1.6,5.4,3.3l1-2.3c0.9-2,2.5-3.6,4.6-4.5
			c1-0.4,2.1-0.6,3.2-0.6s2.2,0.2,3.3,0.7l0.9,0.4c2.5,1.1,4.2,3.2,4.9,5.7c1-0.8,2.2-1.4,3.5-1.7c0.6-0.1,1.2-0.2,1.8-0.2
			c1.6,0,3.1,0.5,4.5,1.3l0.8,0.5c1.9,1.2,3.2,3.1,3.7,5.3c0.2,0.8,0.2,1.6,0.2,2.4c0.8-0.3,1.7-0.4,2.6-0.4c1.6,0,3.2,0.5,4.5,1.3
			l0.9,0.5c1.9,1.2,3.2,3.1,3.7,5.3s0.1,4.4-1.1,6.3l-7.2,11.4l4-3.2c1.5-1.2,3.2-1.8,5.1-1.8c0.3,0,0.6,0,1,0.1
			c2.2,0.3,4.2,1.4,5.5,3.1c1,1.3,1.1,3,0.4,4.4L145,185.7c0,0.1,0.1,0.1,0.1,0.2c0.2,0.1,0.3,0.3,0.4,0.5c2,2.3,2.5,5.5,1.7,9.5
			c-1.8,8.7-5.1,17.4-8.2,25.8c-7.2,19.3-14.1,37.6-5.1,55.6c7,14,19.2,23.9,35.2,28.3c6.6,1.8,13.7,2.8,21.2,2.8
			c18.1,0,37.3-5.5,52.5-15c0.3-0.2,0.6-0.3,0.9-0.4c0.1-0.2,0.2-0.3,0.3-0.5c-16.7-2.1-28.4-9.4-35.4-15.3
			c-8.3-7-14.4-16.1-15.7-23.2c-3.9-21.9,3.3-41,21.3-56.8c5.2-4.6,1.6-18.8-1.6-31.4c-2.1-8.1-4-15.7-4.2-22.1
			c-0.5-20.1,6.4-37.5,20.5-51.7c12.1-12.2,27.2-19.5,37.8-23.5c17.3-6.6,36.8-10.2,54.9-10.2c17.4,0,30.9,3.3,37.4,9
			c1.1-0.1,2.1-0.2,3.2-0.2c11.1,0,21.7,5.6,30.5,16c8.6,10.3,15.5,25.3,19.4,42.2c2.2,9.6,0.8,20.3-0.8,31.7
			c-0.6,4.7-1.3,9.6-1.6,14.2c-0.7,9,2.8,14.9,7.2,22.3c5.6,9.4,12,20.1,10.5,39.5s-8.9,24.1-15.3,28.2c-4.2,2.7-7.9,5-10.2,12.2
			c-0.2,0.6-0.4,1.5-0.7,2.5c-0.8,3.3-2,8-4.9,12.4c3.6,3.5,9.8,10.5,15.1,21.4c9.7,19.7,21.3,61.4,3.7,92.8
			c-12.6,22.5-37.5,35.5-73.8,38.8c-12.9,1.2-25.2,1.7-36.4,1.7H304c-1.6,0-3.2,0-4.8,0c-5.7,0-11-0.2-15.7-0.6
			c-2-0.2-4.2-0.4-6.5-0.7c-17.1-1.7-30-4.7-41.4-7.4c-11.1-2.6-20.7-4.9-31.2-4.9c-4.3,0-8.5,0.4-12.9,1.1c-0.2,0-0.4,0.1-0.7,0.1
			c-1.2,0-2.3-0.5-3-1.4c-0.1-0.1-0.1-0.1-0.1-0.2c-3.1,1.8-7.4,3.2-12.9,3.2l-14.2,10.3C158.9,443.7,157.1,444.3,155.2,444.3z
			 M82.2,161.8L82.2,161.8z"/>
		<path class="st1" d="M321.7,60.6c17.2,0,31,3.4,36.6,9.2c1.4-0.2,2.7-0.3,4-0.3c10.4,0,20.2,5.2,28.5,15.2
			c8.4,10,15.1,24.6,18.9,41.2c2.1,9.1,0.7,19.6-0.8,30.8c-0.6,4.7-1.3,9.6-1.6,14.4c-0.7,9.8,3.1,16.3,7.6,23.8
			c5.4,9.1,11.6,19.5,10.1,38.1c-1.5,18.2-7.9,22.3-14.2,26.3c-4.4,2.8-8.6,5.5-11.3,13.5c-0.2,0.8-0.5,1.7-0.8,2.8
			c-0.9,3.7-2.2,8.8-5.7,13.3c2.4,2.2,9.9,9.4,16.2,22.1c9.5,19.3,20.9,60,3.7,90.4c-12.2,21.7-36.4,34.3-71.9,37.5
			c-13.6,1.2-25.6,1.7-36.2,1.7c-0.3,0-0.6,0-0.9,0c-1.6,0-3.2,0-4.8,0c-5.4,0-10.7-0.2-15.4-0.6c-2.1-0.2-4.2-0.4-6.4-0.7
			c-17-1.7-29.8-4.7-41.1-7.4c-11.4-2.7-21-5-31.8-5c-4.2,0-8.6,0.4-13.4,1.1c-0.1,0-0.2,0-0.3,0c-0.4,0-0.9-0.2-1.1-0.5
			c-0.3-0.4-0.4-1-0.3-1.5c0.2-0.6,0.4-1.2,0.6-1.9c-3,2.7-7.9,5.5-15.5,5.5c-0.2,0-0.4,0-0.6,0l-14.9,10.8
			c-1.1,0.8-2.4,1.2-3.7,1.2c-0.3,0-0.7,0-1-0.1c-1.7-0.3-3.1-1.2-4.1-2.5l-0.6-0.9c-1-1.4-1.4-3-1.1-4.7s1.1-3.1,2.5-4.1l4.6-3.4
			l-13.6,5.5c-0.8,0.3-1.6,0.5-2.4,0.5c-0.8,0-1.6-0.1-2.4-0.5c-1.6-0.6-2.8-1.8-3.4-3.4l-0.4-1c-1.4-3.2,0.1-6.9,3.3-8.2l13.6-5.8
			l-17,4c-0.5,0.1-1,0.2-1.5,0.2c-1.1,0-2.3-0.3-3.3-0.9c-1.4-0.9-2.4-2.3-2.8-3.9l-0.2-1.1c-0.4-1.6-0.1-3.3,0.8-4.8
			c0.9-1.4,2.3-2.4,3.9-2.8l16.9-4c-0.2-0.6-0.5-1.2-0.6-1.8l-15.5,3.1c-0.5,0.1-0.9,0.2-1.4,0.2c-2.8,0-5.4-2-6.1-4.8l-0.2-1.1
			c-0.8-3.4,1.3-6.8,4.7-7.6l17.5-4.1c0-1.1,0.3-2.5,1-4.4l-10.1-1c-3.4-0.4-5.9-3.4-5.5-6.8c0.1-0.5,0.3-0.9,0.7-1.1
			c0.8-0.5,20.4-12.5,38.7-15.4c0.1-0.2,0.3-0.3,0.5-0.5c0,0,0.5-0.3,1.2-0.7c-44.3-3.9-65.2-16.9-78.4-27.9
			c-22.1-18.9-33.6-46-33.2-78.6c0.3-25.8,8-54.1,21.6-80.1c0.1-0.3,0.3-0.6,0.5-0.9c0.3-0.5,0.8-1.4,1.4-2.6c0,0,0-0.1,0.1-0.1l0,0
			l0,0l0,0l0,0l0,0l0,0l0,0l0,0l0,0l0,0l0,0l0,0l0,0l0,0l0,0l0,0l0,0l0,0l0,0l0,0l0,0l0,0l0,0l0,0l0,0l0,0l0,0l0,0l0,0l0,0l0,0l0,0
			l0,0l0,0l0,0l0,0l0,0l0,0l0,0l0,0l0,0l0,0l0,0l0,0l0,0l0,0l0,0l0,0l0,0l0,0l0,0l0,0l0,0l0,0l0,0l0,0l0,0l0,0l0,0l0,0l0,0l0,0l0,0
			l0,0l0,0l0,0l0,0l0,0l0,0l0,0l0,0l0,0l0,0l0,0l0,0l0,0l0,0l0,0l0,0l0,0l0,0l0,0l0,0c0,0,0,0,0.1,0c0.2-0.2,0.5-0.2,0.8-0.3
			c-0.1-5.1,1-13.2,7.7-19.5l2.9-16.6c0.3-1.6,1.1-2.9,2.4-3.8c1-0.7,2.2-1.1,3.4-1.1c0.3,0,0.7,0,1,0.1l1,0.2
			c1.6,0.3,2.9,1.1,3.8,2.4s1.3,2.8,1,4.4l-0.7,4.2l5-11.4c0.6-1.4,1.8-2.6,3.2-3.2c0.7-0.3,1.5-0.4,2.2-0.4c0.8,0,1.6,0.2,2.3,0.5
			l0.9,0.4c3,1.3,4.4,4.7,3.1,7.7l-4.7,11.2l7.8-12.3c0.8-1.3,2.2-2.2,3.7-2.6c0.4-0.1,0.9-0.1,1.3-0.1c1.1,0,2.2,0.3,3.2,0.9
			l0.8,0.5c1.3,0.8,2.2,2.2,2.6,3.7c0.3,1.5,0.1,3.1-0.8,4.4l-8.5,13.3c0.5,0.2,0.9,0.4,1.3,0.7l8.2-11.9c1.1-1.7,3-2.7,4.9-2.7
			c1.1,0,2.2,0.3,3.2,0.9l0.8,0.5c2.7,1.8,3.6,5.4,1.8,8.1l-8.5,13.4c1.1,1,1.7,2.3,2,3.4l7.2-5.7c1-0.8,2.3-1.2,3.6-1.2
			c0.2,0,0.5,0,0.7,0c1.5,0.2,2.9,0.9,3.9,2.2c0.4,0.5,0.4,1.1,0.1,1.6l-16.7,30.5c0.4,0.2,0.7,0.4,1,0.6c0.1,0,0.2,0,0.2,0
			s0,0.1,0,0.2c0.2,0.2,0.5,0.4,0.7,0.7c1.4,1.7,1.8,4.1,1.1,7.3c-1.8,8.5-5,17.1-8.1,25.4c-7.4,19.9-14.5,38.6-5,57.6
			c7.4,14.7,20.1,24.9,36.7,29.6c6.9,1.9,14.3,2.9,21.9,2.9c18.3,0,37.9-5.4,53.8-15.4c0.2-0.1,0.5-0.2,0.8-0.2c0.1,0,0.3,0,0.4,0.1
			c0.4-0.9,0.9-1.8,1.4-2.7c0.4-0.8,0.9-1.5,1.3-2.3c-32.6-2.4-50.6-25.5-52.6-36.8c-3.7-21,3.2-39.3,20.5-54.4
			c6.4-5.6,2.7-20-0.9-33.9c-2-7.9-3.9-15.4-4.1-21.5c-1.1-44.2,35.1-64.6,56.7-72.9C286,63.7,305.4,60.6,321.7,60.6 M321.1,257.2
			l-0.4-0.3v0.3C320.9,257.2,321,257.2,321.1,257.2 M321.7,55.6v5V55.6c-18.4,0-38.2,3.7-55.8,10.3C255.2,70,239.7,77.6,227.3,90
			c-14.6,14.7-21.8,32.7-21.3,53.6c0.2,6.6,2.2,14.4,4.3,22.6c2.7,10.7,6.5,25.4,2.4,28.9c-18.7,16.4-26.2,36.2-22.1,59.1
			c1.4,7.7,7.7,17.2,16.5,24.7c6.3,5.4,16.3,11.7,30.1,14.7c-14.1,7.8-30.9,12.1-46.8,12.1c-7.3,0-14.2-0.9-20.6-2.7
			c-15.3-4.3-26.9-13.6-33.6-27c-8.5-17-2.2-34,5.2-53.6c3.2-8.5,6.5-17.3,8.4-26.1c0.9-4.4,0.4-8.1-1.7-10.9l14.8-27
			c1.3-2.3,1-5.1-0.6-7.1c-1.8-2.3-4.4-3.7-7.2-4c-0.4-0.1-0.9-0.1-1.3-0.1c-0.5,0-1,0-1.5,0.1l1.7-2.7c1.6-2.4,2.1-5.4,1.4-8.2
			c-0.6-2.8-2.3-5.3-4.8-6.8l-0.8-0.5c-1.8-1.1-3.8-1.7-5.9-1.7c-0.1,0-0.2,0-0.3,0c-0.6-2.8-2.3-5.3-4.8-6.8l-0.8-0.5
			c-1.8-1.1-3.8-1.7-5.9-1.7c-0.8,0-1.6,0.1-2.4,0.3c-0.6,0.1-1.2,0.3-1.8,0.6c-1.2-1.9-2.9-3.4-5.1-4.4l-0.9-0.4
			c-1.3-0.6-2.8-0.9-4.2-0.9c-1.4,0-2.8,0.3-4.1,0.8c-2.4,1-4.3,2.7-5.5,4.9c-1.2-0.8-2.6-1.3-4.1-1.6l-1-0.2
			c-0.6-0.1-1.2-0.2-1.9-0.2c-2.2,0-4.4,0.7-6.3,2c-2.4,1.7-4,4.2-4.5,7.1l-2.6,15.1c-4.8,5.1-7.5,11.9-7.9,19.4c0,0,0,0,0,0.1l0,0
			l0,0l-0.1,0.1c0,0,0,0.1-0.1,0.1s0,0.1-0.1,0.1c0,0,0,0,0,0.1l0,0l0,0c-0.1,0.1-0.1,0.2-0.2,0.4c-0.7,1.2-1.2,2.1-1.5,2.6
			c-0.2,0.3-0.4,0.8-0.6,1.3c-13.9,26.6-21.8,55.7-22.1,82.1c-0.4,34.1,11.7,62.6,35,82.4c0,0,0,0,0.1,0c11.3,9.4,28,20.3,59.1,26.1
			c-11.3,4.6-20,9.9-20.6,10.3c-1.7,1.1-2.8,2.9-3,4.9c-0.5,4.5,1.9,8.8,5.6,10.9l-4.7,1.1c-6.1,1.4-9.8,7.5-8.4,13.6l0.2,1.1
			c0.6,2.4,1.9,4.5,3.7,6c-0.1,0.1-0.2,0.3-0.2,0.4c-1.6,2.6-2.1,5.6-1.4,8.5l0.2,1.1c0.7,2.9,2.5,5.4,5.1,7
			c0.7,0.4,1.5,0.8,2.3,1.1c-0.7,2.4-0.5,5,0.5,7.4l0.4,1c1.2,2.8,3.4,4.9,6.2,6.1c1.4,0.5,2.8,0.8,4.2,0.8s2.7-0.2,3.9-0.7
			c0.3,1.7,1,3.3,2,4.8l0.6,0.9c1.8,2.4,4.4,4,7.4,4.5c0.6,0.1,1.2,0.1,1.8,0.1c2.4,0,4.7-0.8,6.6-2.2l13.6-9.9
			c4.8-0.1,8.7-1.2,11.7-2.7c1.1,0.7,2.3,1.1,3.6,1.1c0.4,0,0.8,0,1.1-0.1c4.2-0.7,8.4-1.1,12.5-1.1c10.2,0,19.7,2.2,30.7,4.8
			c11.4,2.7,24.4,5.8,41.7,7.5c2.3,0.3,4.5,0.5,6.5,0.7c4.7,0.4,10.1,0.6,15.9,0.6c1.6,0,3.2,0,4.9,0h0.3h0.6
			c11.3,0,23.7-0.6,36.6-1.8c37.2-3.3,62.7-16.8,75.8-40c18.2-32.3,6.3-75-3.6-95.1c-4.9-9.9-10.4-16.7-14.2-20.7
			c2.3-4.2,3.4-8.3,4.1-11.3v-0.1c0.2-1,0.5-1.8,0.6-2.4c2.1-6.3,5.1-8.2,9.2-10.9c6.6-4.2,14.8-9.5,16.5-30.1
			c1.6-20.2-5.3-31.7-10.8-41c-4.4-7.3-7.5-12.6-6.9-20.8c0.4-4.6,1-9.4,1.6-14.1c1.5-11.6,3-22.6,0.7-32.6
			c-4-17.3-11-32.7-19.9-43.3c-9.3-11.1-20.5-16.9-32.4-16.9c-0.8,0-1.6,0-2.4,0.1C352.7,58.8,339,55.6,321.7,55.6L321.7,55.6z"/>
	</g>
</g>
<g id="Layer_10_copy_4">
	<g>
		<path class="st2" d="M104.8,437.5c-0.1,0-0.2,0-0.3-0.1l-1.8-1.5c-0.2-0.2-0.5-0.4-0.8-0.6C57.3,398.5,27.8,346.9,18.8,290
			l-0.1-0.6c0-0.3-0.1-0.6-0.1-0.9s-0.1-0.6-0.1-0.9l-0.1-0.7c0-0.2,0-0.3,0.1-0.4s0.2-0.1,0.4-0.1H19l117.4,20.3
			c0.6,0.1,1,0.4,1.3,0.9s0.4,1,0.3,1.6l-32.5,128c0,0.2-0.2,0.3-0.3,0.4C104.9,437.5,104.9,437.5,104.8,437.5z"/>
		<path class="st2" d="M18.8,286.8l117.4,20.3c0.4,0.1,0.8,0.3,1,0.7c0.2,0.4,0.3,0.8,0.2,1.2l-32.6,128c-0.4-0.3-0.9-0.7-1.3-1
			s-0.9-0.7-1.3-1c-43.4-35.8-73.8-86.9-83-145c-0.1-0.5-0.2-1-0.2-1.6C18.9,287.9,18.9,287.3,18.8,286.8 M18.8,285.8
			c-0.3,0-0.5,0.1-0.7,0.3c-0.2,0.2-0.3,0.5-0.3,0.9c0,0.2,0.1,0.4,0.1,0.7c0,0.3,0.1,0.6,0.1,0.9s0.1,0.6,0.1,0.9l0.1,0.6
			c9,57,38.6,108.7,83.4,145.6c0.2,0.2,0.5,0.4,0.8,0.6c0.2,0.1,0.4,0.3,0.5,0.4c0.4,0.3,0.7,0.6,1.1,0.9l0.2,0.2
			c0.2,0.1,0.4,0.2,0.6,0.2c0.1,0,0.2,0,0.3,0c0.3-0.1,0.6-0.4,0.7-0.7l32.5-128.1c0.2-0.7,0.1-1.4-0.3-2c-0.4-0.6-1-1-1.7-1.1
			L18.9,285.8H18.8L18.8,285.8z"/>
	</g>
</g>
<g id="Layer_24_copy">
	<g>
		<path class="st2" d="M155.2,442.3c-0.4,0-0.7,0-1.1-0.1c-1.8-0.3-3.4-1.2-4.4-2.7l-0.6-0.9c-1.1-1.5-1.5-3.3-1.2-5
			s1.2-3.4,2.7-4.4l1.3-0.9l-9.7,4c-0.8,0.4-1.7,0.5-2.6,0.5c-0.9,0-1.7-0.2-2.6-0.5c-1.7-0.7-3-2-3.7-3.6l-0.4-1
			c-1.5-3.5,0.2-7.4,3.6-8.9l8.1-3.5l-11.1,2.6c-0.5,0.1-1.1,0.2-1.6,0.2c-1.2,0-2.5-0.4-3.6-1c-1.5-1-2.6-2.5-3.1-4.2l-0.2-1.1
			c-0.4-1.8-0.1-3.6,0.8-5.1s2.5-2.6,4.2-3l16.3-3.9c-0.1-0.3-0.2-0.6-0.3-0.9l-15.1,3c-0.5,0.1-1,0.2-1.5,0.2
			c-3.1,0-5.9-2.2-6.6-5.2l-0.2-1.1c-0.9-3.6,1.4-7.3,5-8.2l17.1-4.1c0.1-1.1,0.3-2.3,0.8-3.6l-9.5-1c-3.7-0.4-6.3-3.7-6-7.3
			c0.1-0.6,0.4-1.2,0.9-1.5c0.8-0.5,20.3-12.5,38.7-15.5c0.1-0.1,0.2-0.2,0.3-0.3c-43.5-4-64-17-77.1-27.9
			c-22.2-19-33.8-46.3-33.4-79c0.3-25.8,8-54.3,21.7-80.3c0.1-0.3,0.3-0.6,0.5-1c0.3-0.5,0.8-1.4,1.4-2.6l0.1-0.1c0,0,0-0.1,0.1-0.1
			l0.1-0.1c0,0,0,0,0.1-0.1l0.1-0.1l0.1-0.1c0.2-0.1,0.3-0.2,0.6-0.3c0-5.6,1.3-13.3,7.7-19.4l2.8-16.5c0.3-1.7,1.2-3.2,2.6-4.1
			c1.1-0.8,2.4-1.2,3.7-1.2c0.4,0,0.7,0,1.1,0.1l1,0.2c1.7,0.3,3.2,1.2,4.1,2.6c1,1.4,1.4,3.1,1.1,4.8v0.1l3.3-7.6
			c0.7-1.6,1.9-2.8,3.5-3.4c0.8-0.3,1.6-0.5,2.4-0.5c0.9,0,1.7,0.2,2.5,0.5l0.9,0.4c3.2,1.4,4.8,5.1,3.4,8.4l-2.4,5.7l4.6-7.2
			c0.9-1.4,2.3-2.4,4-2.8c0.5-0.1,0.9-0.2,1.4-0.2c1.2,0,2.4,0.3,3.4,1l0.8,0.5c1.4,0.9,2.4,2.3,2.8,4c0.4,1.7,0.1,3.4-0.9,4.8
			l-8.2,12.8c0.2,0.1,0.3,0.2,0.4,0.2l7.9-11.5c1.1-1.8,3.2-2.9,5.4-2.9c1.2,0,2.4,0.4,3.4,1l0.8,0.5c1.4,0.9,2.4,2.3,2.8,4
			s0.1,3.4-0.9,4.8l-8.5,13.4c0.7,0.8,1.3,1.7,1.6,2.6l6.6-5.2c1.1-0.9,2.5-1.4,3.9-1.4c0.2,0,0.5,0,0.8,0c1.7,0.2,3.2,1,4.2,2.4
			c0.5,0.6,0.6,1.5,0.2,2.2l-16.5,30.1c0.2,0.1,0.3,0.2,0.5,0.3c0,0,0,0,0.1,0s0.2,0,0.3,0.1s0.2,0.2,0.2,0.3l0,0
			c0.2,0.2,0.4,0.4,0.6,0.6c1.6,1.8,2,4.4,1.2,7.8c-1.8,8.5-5,17.1-8.2,25.5c-7.4,19.8-14.4,38.4-5,57.2
			c7.3,14.6,19.9,24.7,36.4,29.4c6.7,1.9,14.1,2.8,21.8,2.8c18.5,0,38-5.6,53.6-15.4c0.3-0.2,0.7-0.3,1.1-0.3c0.1,0,0.1,0,0.1,0
			c0.4-0.8,0.8-1.6,1.2-2.4c0.3-0.5,0.6-1.1,0.9-1.6c-32.4-2.8-50.2-25.9-52.2-37.1c-3.7-21.2,3.2-39.7,20.7-54.9
			c6.2-5.4,2.5-19.6-1-33.4c-2-8-4-15.5-4.1-21.6c-1.1-44.5,35.3-65,57.1-73.3c17-6.5,36.3-10.1,54.2-10.1c17.3,0,31,3.4,36.8,9.1
			c1.3-0.2,2.6-0.2,3.9-0.2c10.5,0,20.5,5.3,28.9,15.3c8.4,10.1,15.2,24.8,19,41.4c2.1,9.2,0.7,19.8-0.8,31
			c-0.6,4.7-1.3,9.6-1.6,14.4c-0.7,9.7,3.1,16.1,7.5,23.5c5.5,9.2,11.7,19.6,10.2,38.4c-1.5,18.5-8,22.6-14.4,26.7
			c-4.4,2.8-8.5,5.4-11.1,13.2c-0.2,0.7-0.5,1.6-0.7,2.7c-1,3.7-2.2,8.7-5.5,13.2c2.6,2.4,9.9,9.7,16,22c9.5,19.4,21,60.3,3.7,90.9
			c-12.3,21.9-36.6,34.6-72.3,37.8c-12.9,1.1-25,1.7-36.2,1.7H304c-1.6,0-3.2,0-4.8,0c-5.7,0-10.9-0.2-15.5-0.6
			c-2-0.2-4.2-0.4-6.5-0.7c-17.1-1.7-29.9-4.7-41.2-7.4c-11.2-2.6-20.9-5-31.7-5c-4.4,0-8.7,0.4-13.3,1.1c-0.1,0-0.2,0-0.3,0
			c-0.6,0-1.1-0.2-1.5-0.7s-0.6-1.3-0.4-1.9c0-0.1,0.1-0.2,0.1-0.2c-2.9,2.2-7.6,4.5-14.5,4.5c-0.1,0-0.5,0-0.5,0l-14.8,10.7
			C158.1,441.8,156.7,442.3,155.2,442.3z"/>
		<path class="st2" d="M321.7,60.6c17.2,0,31,3.4,36.6,9.2c1.4-0.2,2.7-0.3,4-0.3c10.4,0,20.2,5.2,28.5,15.2
			c8.4,10,15.1,24.6,18.9,41.2c2.1,9.1,0.7,19.6-0.8,30.8c-0.6,4.7-1.3,9.6-1.6,14.4c-0.7,9.8,3.1,16.3,7.6,23.8
			c5.4,9.1,11.6,19.5,10.1,38.1c-1.5,18.2-7.9,22.3-14.2,26.3c-4.4,2.8-8.6,5.5-11.3,13.5c-0.2,0.8-0.5,1.7-0.8,2.8
			c-0.9,3.7-2.2,8.8-5.7,13.3c2.4,2.2,9.9,9.4,16.2,22.1c9.5,19.3,20.9,60,3.7,90.4c-12.2,21.7-36.4,34.3-71.9,37.5
			c-13.6,1.2-25.6,1.7-36.2,1.7c-0.3,0-0.6,0-0.9,0c-1.6,0-3.2,0-4.8,0c-5.4,0-10.7-0.2-15.4-0.6c-2.1-0.2-4.2-0.4-6.4-0.7
			c-17-1.7-29.8-4.7-41.1-7.4c-11.4-2.7-21-5-31.8-5c-4.2,0-8.6,0.4-13.4,1.1c-0.1,0-0.2,0-0.3,0c-0.4,0-0.9-0.2-1.1-0.5
			c-0.3-0.4-0.4-1-0.3-1.5c0.2-0.6,0.4-1.2,0.6-1.9c-3,2.7-7.9,5.5-15.5,5.5c-0.2,0-0.4,0-0.6,0l-14.9,10.8
			c-1.1,0.8-2.4,1.2-3.7,1.2c-0.3,0-0.7,0-1-0.1c-1.7-0.3-3.1-1.2-4.1-2.5l-0.6-0.9c-1-1.4-1.4-3-1.1-4.7s1.1-3.1,2.5-4.1l4.6-3.4
			l-13.6,5.5c-0.8,0.3-1.6,0.5-2.4,0.5c-0.8,0-1.6-0.1-2.4-0.5c-1.6-0.6-2.8-1.8-3.4-3.4l-0.4-1c-1.4-3.2,0.1-6.9,3.3-8.2l13.6-5.8
			l-17,4c-0.5,0.1-1,0.2-1.5,0.2c-1.1,0-2.3-0.3-3.3-0.9c-1.4-0.9-2.4-2.3-2.8-3.9l-0.2-1.1c-0.4-1.6-0.1-3.3,0.8-4.8
			s2.3-2.4,3.9-2.8l16.9-4c-0.2-0.6-0.5-1.2-0.6-1.8l-15.5,3.1c-0.5,0.1-0.9,0.2-1.4,0.2c-2.8,0-5.4-2-6.1-4.8l-0.2-1.1
			c-0.8-3.4,1.3-6.8,4.7-7.6l17.5-4.1c0-1.1,0.3-2.5,1-4.4l-10.1-1c-3.4-0.4-5.9-3.4-5.5-6.8c0.1-0.5,0.3-0.9,0.7-1.1
			c0.8-0.5,20.4-12.5,38.7-15.4c0.1-0.2,0.3-0.3,0.5-0.5c0,0,0.5-0.3,1.2-0.7c-44.3-3.9-65.2-16.9-78.4-27.9
			c-22.1-18.9-33.6-46-33.2-78.6c0.3-25.8,8-54.1,21.6-80.1c0.1-0.3,0.3-0.6,0.5-0.9c0.3-0.5,0.8-1.4,1.4-2.6c0,0,0-0.1,0.1-0.1l0,0
			l0,0l0,0l0,0l0,0l0,0l0,0l0,0l0,0l0,0l0,0l0,0l0,0l0,0l0,0l0,0l0,0l0,0l0,0l0,0l0,0l0,0l0,0l0,0l0,0l0,0l0,0l0,0l0,0l0,0l0,0l0,0
			l0,0l0,0l0,0l0,0l0,0l0,0l0,0l0,0l0,0l0,0l0,0l0,0l0,0l0,0l0,0l0,0l0,0l0,0l0,0l0,0l0,0l0,0l0,0l0,0l0,0l0,0l0,0l0,0l0,0l0,0l0,0
			l0,0l0,0l0,0l0,0l0,0l0,0l0,0l0,0l0,0l0,0l0,0l0,0l0,0l0,0l0,0l0,0l0,0l0,0l0,0l0,0c0,0,0,0,0.1,0c0.2-0.2,0.5-0.2,0.8-0.3
			c-0.1-5.1,1-13.2,7.7-19.5l2.9-16.6c0.3-1.6,1.1-2.9,2.4-3.8c1-0.7,2.2-1.1,3.4-1.1c0.3,0,0.7,0,1,0.1l1,0.2
			c1.6,0.3,2.9,1.1,3.8,2.4s1.3,2.8,1,4.4l-0.7,4.2l5-11.4c0.6-1.4,1.8-2.6,3.2-3.2c0.7-0.3,1.5-0.4,2.2-0.4c0.8,0,1.6,0.2,2.3,0.5
			l0.9,0.4c3,1.3,4.4,4.7,3.1,7.7l-4.7,11.2l7.8-12.3c0.8-1.3,2.2-2.2,3.7-2.6c0.4-0.1,0.9-0.1,1.3-0.1c1.1,0,2.2,0.3,3.2,0.9
			l0.8,0.5c1.3,0.8,2.2,2.2,2.6,3.7c0.3,1.5,0.1,3.1-0.8,4.4l-8.5,13.3c0.5,0.2,0.9,0.4,1.3,0.7l8.2-11.9c1.1-1.7,3-2.7,4.9-2.7
			c1.1,0,2.2,0.3,3.2,0.9l0.8,0.5c2.7,1.8,3.6,5.4,1.8,8.1l-8.5,13.4c1.1,1,1.7,2.3,2,3.4l7.2-5.7c1-0.8,2.3-1.2,3.6-1.2
			c0.2,0,0.5,0,0.7,0c1.5,0.2,2.9,0.9,3.9,2.2c0.4,0.5,0.4,1.1,0.1,1.6l-16.7,30.5c0.4,0.2,0.7,0.4,1,0.6c0.1,0,0.2,0,0.2,0
			s0,0.1,0,0.2c0.2,0.2,0.5,0.4,0.7,0.7c1.4,1.7,1.8,4.1,1.1,7.3c-1.8,8.5-5,17.1-8.1,25.4c-7.4,19.9-14.5,38.6-5,57.6
			c7.4,14.7,20.1,24.9,36.7,29.6c6.9,1.9,14.3,2.9,21.9,2.9c18.3,0,37.9-5.4,53.8-15.4c0.2-0.1,0.5-0.2,0.8-0.2c0.1,0,0.3,0,0.4,0.1
			c0.4-0.9,0.9-1.8,1.4-2.7c0.4-0.8,0.9-1.5,1.3-2.3c-32.6-2.4-50.6-25.5-52.6-36.8c-3.7-21,3.2-39.3,20.5-54.4
			c6.4-5.6,2.7-20-0.9-33.9c-2-7.9-3.9-15.4-4.1-21.5c-1.1-44.2,35.1-64.6,56.7-72.9C286,63.7,305.4,60.6,321.7,60.6 M321.1,257.2
			l-0.4-0.3v0.3C320.9,257.2,321,257.2,321.1,257.2 M321.7,59.6v1V59.6c-17.9,0-37.2,3.6-54.3,10.1c-21.9,8.3-58.5,29-57.4,73.8
			c0.2,6.2,2.1,13.7,4.1,21.7c3.5,13.6,7.1,27.8,1.2,32.9c-17.6,15.4-24.6,34-20.8,55.4c0.9,5.1,5.4,14,15.1,22.3
			c7.1,6,19.2,13.5,36.8,15.2c-0.2,0.3-0.4,0.6-0.5,1c-0.4,0.7-0.7,1.4-1.1,2.1c-0.4,0-0.8,0.1-1.1,0.4
			c-15.5,9.7-34.9,15.3-53.3,15.3c-7.7,0-15-1-21.6-2.8c-16.4-4.6-28.9-14.7-36.1-29.1c-9.3-18.6-2.3-37.2,5-56.8
			c3.1-8.4,6.4-17,8.2-25.6c0.8-3.6,0.3-6.2-1.4-8.2c-0.2-0.2-0.3-0.4-0.5-0.5c-0.1-0.2-0.2-0.4-0.4-0.5c-0.1-0.1-0.3-0.1-0.4-0.2
			l16.3-29.6c0.5-0.9,0.4-2-0.2-2.8c-1.1-1.4-2.7-2.3-4.5-2.5c-0.3,0-0.5-0.1-0.8-0.1c-1.5,0-3,0.5-4.2,1.5l-6.1,4.8
			c-0.3-0.7-0.7-1.3-1.2-1.9l8.3-13.1c1-1.6,1.3-3.4,0.9-5.2s-1.5-3.3-3-4.3l-0.8-0.5c-1.1-0.7-2.4-1.1-3.7-1.1
			c-2.4,0-4.5,1.2-5.8,3.1L138,135l1.1-1.7c1-1.6,1.3-3.4,0.9-5.2c-0.4-1.8-1.5-3.3-3-4.3l-0.8-0.5c-1.1-0.7-2.4-1.1-3.7-1.1
			c-0.5,0-1,0.1-1.5,0.2c-1.8,0.4-3.3,1.5-4.3,3l-1.4,2.2l0.1-0.2c1.5-3.5-0.2-7.6-3.7-9l-0.9-0.4c-0.9-0.4-1.8-0.6-2.7-0.6
			c-0.9,0-1.8,0.2-2.6,0.5c-1.7,0.7-3,2-3.8,3.7L109,127c-0.2-1-0.6-1.9-1.2-2.8c-1.1-1.5-2.7-2.5-4.5-2.8l-1-0.2
			c-0.4-0.1-0.8-0.1-1.2-0.1c-1.4,0-2.8,0.4-4,1.3c-1.5,1.1-2.5,2.7-2.8,4.5l-2.8,16.3c-6.3,6.1-7.7,13.7-7.7,19.3
			c-0.1,0.1-0.3,0.1-0.4,0.2c0,0-0.1,0-0.1,0.1l0,0l0,0l0,0c0,0,0,0-0.1,0.1l0,0l0,0l0,0l0,0l0,0l0,0l0,0l0,0l0,0l0,0l0,0l0,0l0,0
			l0,0l0,0l0,0l0,0l0,0l0,0l0,0l0,0l0,0l0,0l0,0l0,0l0,0l0,0l0,0c0,0.1-0.1,0.1-0.1,0.1c-0.7,1.2-1.2,2.1-1.4,2.6
			c-0.2,0.3-0.4,0.7-0.5,1c-13.7,26.1-21.4,54.6-21.7,80.5c-0.4,32.8,11.2,60.3,33.6,79.4c12.8,10.7,32.9,23.4,74.7,27.7
			c-17.8,3.6-35.8,14.6-36.6,15.1c-0.6,0.4-1.1,1.1-1.2,1.9c-0.4,3.9,2.5,7.5,6.4,7.9l8.8,0.9c-0.3,1-0.5,1.9-0.6,2.7l-16.7,4
			c-3.9,0.9-6.3,4.9-5.4,8.8l0.2,1.1c0.8,3.2,3.8,5.6,7.1,5.6c0.6,0,1.1-0.1,1.6-0.2l12.3-2.4l-13.5,3.2c-1.9,0.5-3.5,1.6-4.5,3.3
			s-1.3,3.6-0.9,5.5l0.2,1.1c0.4,1.9,1.6,3.5,3.3,4.5c1.1,0.7,2.5,1.1,3.8,1.1c0.6,0,1.1-0.1,1.7-0.2l5.3-1.3l-2.6,1.1
			c-1.8,0.8-3.2,2.2-3.9,4s-0.7,3.8,0,5.6l0.4,1c0.8,1.8,2.2,3.2,4,3.9c0.9,0.4,1.8,0.5,2.7,0.5c1,0,1.9-0.2,2.8-0.6l6.7-2.7
			c-0.9,1-1.4,2.2-1.6,3.6c-0.3,1.9,0.2,3.9,1.3,5.4l0.6,0.9c1.1,1.6,2.8,2.6,4.8,2.9c0.4,0.1,0.8,0.1,1.1,0.1c1.5,0,3-0.5,4.3-1.4
			l14.6-10.6c0.1,0,0.2,0,0.3,0c6.3,0,10.8-1.9,13.8-3.9c0.1,0.5,0.2,1,0.6,1.4c0.5,0.5,1.2,0.9,1.9,0.9c0.1,0,0.3,0,0.4,0
			c4.5-0.8,8.8-1.1,13.2-1.1c10.7,0,20.4,2.3,31.6,4.9c11.3,2.7,24.2,5.7,41.3,7.4c2.3,0.3,4.5,0.5,6.5,0.7
			c4.6,0.4,9.8,0.6,15.5,0.6c1.6,0,3.2,0,4.8,0h0.4h0.5c11.2,0,23.4-0.6,36.3-1.7c35.8-3.2,60.2-16,72.6-38
			c17.3-30.8,5.8-71.9-3.7-91.4c-5.8-11.7-12.5-18.9-15.7-21.8c3.2-4.5,4.5-9.5,5.4-12.9v-0.1c0.3-1,0.5-1.9,0.7-2.6
			c2.5-7.6,6.4-10.1,10.9-13c6.5-4.1,13.1-8.4,14.6-27.1c1.5-18.9-4.7-29.4-10.3-38.6c-4.4-7.3-8.2-13.7-7.4-23.2
			c0.4-4.7,1-9.6,1.6-14.3c1.5-11.2,2.9-21.9,0.8-31.2c-3.8-16.7-10.6-31.5-19.1-41.6s-18.6-15.5-29.3-15.5c-1.2,0-2.5,0.1-3.7,0.2
			C352.7,63,338.9,59.6,321.7,59.6L321.7,59.6z"/>
	</g>
</g>
<g id="Layer_16">
	<polygon class="st3" points="341.4,231.1 308.2,245.5 335.6,270.3 362.7,268 362.7,238.9 	"/>
</g>
<g id="Layer_3">
</g>
<g id="Layer_10_copy_2">
	<g>
		<g>
			<g>
				<defs>
					<circle id="SVGID_1_" cx="252.6" cy="252.6" r="236.3"/>
				</defs>
				<clipPath id="SVGID_2_">
					<use xlink:href="#SVGID_1_"  style="overflow:visible;"/>
				</clipPath>
				<g class="st4">
					<polygon class="st5" points="103.8,437.9 178.2,413.8 52.9,375.4 -59.3,399.8 					"/>
					<polygon class="st6" points="103.8,437.9 178.2,413.8 52.9,375.4 -59.3,399.8 					"/>
				</g>
			</g>
		</g>
	</g>
</g>
<g id="Layer_8">
	<path class="st1" d="M85.5,165.5c0,0,0.5-10.8,3-13.5s5.4-7.6,5.4-7.6s3.2-18.2,3.5-18.6s6.1-3.4,8.2-0.4c2.1,3,0,13.5,0,13.5
		l8.4-17c0,0,5.4-2.6,7.8-0.3c2.4,2.3-0.8,9.5-0.8,9.5l-3.3,9.1l1.9,0.4l9.5-14.6c0,0,4.1-1.9,6.7,0.2c2.6,2.1,0.3,6.8,0.3,6.8
		l-7.8,13.6l3.2,2.1l8.9-13.5c0,0,3.6-1.9,6.9,0.5s1.3,5.4,1.3,5.4l-9.3,14.6l2.6,5.3l10-6.9c0,0,4.4-0.1,5,0.8
		c0.7,0.8-16.6,31.3-16.6,31.3s-13.9,1.6-26.9-2C100.3,180.5,87.3,173.4,85.5,165.5z"/>
	<path class="st1" d="M171.9,356.4c0,0-17.1,2.9-21.6,5.5s-18.2,10.2-18.2,10.2s0.3,3.6,2.3,4.2c2.1,0.6,14.8,2.3,14.8,2.3l-3.1,6
		c0,0-20.9,6.1-21.3,7.4c-0.4,1.2,0.8,8.3,4.1,7.9c3.3-0.5,18.1-3.4,18.1-3.4l1.2,4.6c0,0-21.1,3.5-21.6,8.2s0.8,6.9,6.1,6.6
		c5.4-0.3,18.1-4.6,18.1-4.6l1.1,2.9c0,0-17.7,6.1-17.9,9.8c-0.2,3.7,3.3,7.5,5.6,6.8c2.3-0.8,20.8-6.7,20.8-6.7l-10.9,10
		c0,0,2.2,7,5.5,6s17-11,17-11s3.6-0.8,9.2-2.2s11.1-7,11.1-7s2.6-18.2,1.7-24.6C193.5,388.8,184.8,364.8,171.9,356.4z"/>
</g>
<g id="Layer_6">
	<path class="st7" d="M85,164.6c0,0,3.5,11.1,24.1,18.3S143,187,143,187s1.5,9.6-2.6,18.5S129.6,233,129.6,233s-7.6,30.1-2,41.3
		c5.6,11.2,13,24.8,36,32.7s52.7,1.8,52.7,1.8l29.5-11.5L234.7,333l-4.4,15.8c0,0-22.5,6.1-35.6,5.1s-52.9-4.1-61.3-7.7
		s-36-11.6-54.1-38.2S62,252.4,62,252.4s-0.4-24.9,5.8-44.2S85,164.6,85,164.6z"/>
	<path class="st7" d="M385.6,426.9c4.6-3,8.8-6.9,12.7-10.8c7.1-6.9,13.3-14.7,17.4-23.8c10.6-23.4,3.8-48.9-3.1-72.3
		c0-0.2-0.1-0.3-0.1-0.5c-13.5-27.2-38.7-50.2-73.6-58.2c-0.3,1.8-1.2,3.5-2.6,4.8c-3.9,3.6-9.6,5.6-14.3,7.8
		c-4.7,2.2-10,3-15.1,2.8c-10-0.5-21.3-2.9-28.1-10.7c-0.5-0.6-0.9-1.2-1.1-1.8c-39.8,16.9-39.8,66.9-50.9,99.6
		c-6.4,19-17.2,26.7-26.4,29.6c0,7.3-0.2,14.6-0.9,21.8c0,0.3-0.1,0.6-0.2,0.9c30.4,2.1,111.6,7.7,158.7,17.7
		c1.2,0.2,2.4,0.5,3.5,0.7c2.4-0.4,4.8-0.8,7.1-1.3C374.3,430.7,380.5,430.3,385.6,426.9z"/>
	<path class="st7" d="M171.9,356.4c0,0,15.1,14.2,18.9,27.6s3.8,19.8,3.8,19.8l-1.1,11.6l-2.8,11.2c0,0,13.9-2.9,24.6,0
		s44.5,11.2,68.4,13.4c24,2.2,59.8-1.6,74.4-6.2s31.2-14.7,41.4-33.8c10.1-19.1,10.4-41.3,11.6-49.5s-9.3-28.8-9.3-28.8l-32.1,10.1
		c0,0,2.9,32.4-19,42s-63.7-6.3-63.7-6.3s-54.9-20-63.5-20.7s-33.1,1.3-38.8,2.9S171.9,356.4,171.9,356.4z"/>
</g>
<g id="Layer_22">
	<path class="st8" d="M278.6,269.3c0,0,9.9,13.8,23.8,14.4s25.9-2.1,25.9-2.1s14.1,19.2,29.1,21s30.3-2.7,39.6,19.1
		c9.3,21.8,19.9,71.8-6,90.6c-26,18.9-103.8,13.8-112.4,11.6c-8.6-2.2-59.9-12.8-65.3-12.4c-5.4,0.4-13.9-52.8-39.6-54.6
		c7.3,6.1,22.6,29.1,20.7,38.3s-3.7,31.4-3.7,31.4s12.5-2.8,29.3,1.2s69,14.9,109.5,11.2s63.5-9.8,81-36.5s9.2-63.2,2.7-78.3
		s-21.9-35.1-21.9-35.1l-51.9-27.8c0,0-7,10.6-22.9,15.4C300.7,281.6,278.6,269.3,278.6,269.3z"/>
	<path class="st8" d="M230.4,348.3l2.8-9.1c0,0,57.8,23.8,88.1,22.9s48.7-25.2,45.2-46.2s20.9,43.1-13.4,56.5s-83.7-11-83.7-11
		L230.4,348.3z"/>
	<path class="st8" d="M232.9,303c0,0-14.2,30.3-41.8,33s-98.8-19.5-113.8-49s-13.5-60.1-13.5-60.1s-8.4,45.2,13.1,77.3
		s58.9,42.2,62.3,43s38.4,5.7,38.4,5.7s17.9-5.1,23.2-5.5s29.7,0.9,29.7,0.9l14.7-49.1L232.9,303z"/>
</g>
<g id="Layer_7">
	<path class="st1" d="M234.1,138.4v71.8c0,0-0.7,27.3,31.2,34.7c28,1.8,64.2-0.8,73.2-1.2c11.3-2.8,23.6-10.5,28-37.4
		c0.1-18-1.6-91.1-7.5-93.7s-62.1-4.8-62.1-4.8L234.1,138.4z"/>
	<path class="st1" d="M292.2,243c0,0-6.9,3-6.1,6.5s-0.1,11.8-0.1,11.8l-8.7,3c0,0,6.3,12.2,26,12.9s28.3-8.7,28.3-8.7l7.8-7
		l-19.2-2.8c0,0-1.1-11.2-2.4-12.2s-4.5-2.7-4.5-2.7L292.2,243z"/>
</g>
<g id="Layer_17">
	<path class="st7" d="M343.9,121.7c0,0-7.3,17.9-3.3,33.6s16.3,39.7,12,55.6s-3.9,23.2-21.2,26.5S294,243,294,243s20.1,3.3,20.7,7.7
		s-6.6,8.6-6.6,8.6s19,1.5,17.6,5.4s-16.4,12.3-29.1,10.7s4.1,3.9,18.1,1.8s23.8-14.9,23.8-14.9l-19.1-4l-0.3-12.9l16.1-1.1
		l12.4-4.6c0,0,13.4-23.6,12.7-31.7c-0.6-8.1-2.3-21.1-2.3-21.1l-8.8-37.3l0.8-20.5l1.9-9.9L343.9,121.7z"/>
	<path class="st7" d="M230.1,139c0,0,16.9,7.1,45.2,3.7c28.3-3.5,31.9-10.6,31.9-10.6s31.4,1.2,36.5-1s5.8-11.1,5.8-11.1l-40.8,3.3
		l-30.2,6.9L230.1,139z"/>
	<path class="st7" d="M313.8,188h-2.6c-4.2,0-7.6-3.4-7.6-7.6v-12.9c0-4.2,3.4-7.6,7.6-7.6h2.6c4.2,0,7.6,3.4,7.6,7.6v12.9
		C321.4,184.6,318,188,313.8,188z"/>
	<path class="st7" d="M257.3,188H255c-4.3,0-7.8-3.5-7.8-7.8v-12.5c0-4.3,3.5-7.8,7.8-7.8h2.3c4.3,0,7.8,3.5,7.8,7.8v12.5
		C265,184.5,261.6,188,257.3,188z"/>
	<path class="st9" d="M301.2,234.6l-9.3,0.6c-11.3,0.8-21.1-7.8-21.9-19.1l-0.4-6.4l50.3-3.4l0.4,6.4
		C321,224,312.5,233.8,301.2,234.6z"/>
</g>
<g id="Layer_18">
	<path class="st10" d="M145.1,134.9c4.7,2.9,0.2,8.1-1.8,11.1c-2.1,3.2-4.1,6.4-6.1,9.6"/>
	<path class="st10" d="M133,125.7c5,2.8,0.5,8-1.5,11.1c-2.1,3.3-4.2,6.5-6.2,9.8"/>
	<path class="st10" d="M117.7,120.4c5.4,1.9,2.5,7.1,1,10.6c-1.4,3.4-2.9,6.8-4.3,10.2"/>
	<path class="st10" d="M100.6,123.8c7.1,0.9,2.3,14.3,1.6,18.6"/>
	<path class="st10" d="M135.2,166.7c0,0-8.5-5.7-14.2,2.6"/>
	<path class="st10" d="M137.7,187.1c3.7-6.7,7.3-13.4,11-20.1c0.9-1.7,8.9-12.9,4.4-13.2"/>
	<path class="st10" d="M139.7,162c0,0,0.9-4.2-3.1-6.3"/>
	<path class="st10" d="M131.5,152.8c0,0-1-5.1-7.5-6.2"/>
	<path class="st10" d="M120.2,144.4c0,0-1.5-3.3-8.2-2.5"/>
	<path class="st10" d="M107.8,141.8c0,0-3.8-0.6-8.5,2.2"/>
	<path class="st10" d="M86.4,164.8c0,0,8.4,12.8,27,17.5s25.8,1.9,25.8,1.9"/>
</g>
<g id="Layer_19">
	<path class="st10" d="M147.6,394.5c0,0-13.1,3.2-18.1,3.9c-3.5,0.5-4.8-2.2-3.9-6.8"/>
	<path class="st10" d="M151.7,409.4l-18.4,4.4c-2.6,0.6-5.2-1-5.8-3.5l-0.2-1.1"/>
	<path class="st10" d="M163.6,419.3l-21.8,8.9c-2.4,1-5.2-0.1-6.3-2.5l-0.4-1"/>
	<path class="st10" d="M173.7,426.1l-15.3,11.1c-2.1,1.6-5.1,1.1-6.7-1.1l-0.6-0.9"/>
	<path class="st10" d="M193,416.1c0,0-4.4,10.6-19.3,10"/>
	<path class="st10" d="M133,372.4c2.2,4.1,11.5,3.2,15.4,3.6"/>
	<path class="st10" d="M154.2,368.9c-2.5,2.8-4.9,6-6.4,9.5"/>
	<path class="st10" d="M149.1,389.5c0,0-3.1,4.8,1.2,10.5"/>
	<path class="st10" d="M151.6,404.7c0,0-1.3,3.7,4.5,8.1"/>
	<path class="st10" d="M159.3,416.1c0,0,2.5,3.3,8.3,4.7"/>
	<path class="st10" d="M169.4,356.9c0,0,15.6,12.4,21,30.5s-0.6,32.7-0.6,32.7"/>
</g>
<g id="Layer_9">
	<path class="st11" d="M269.6,217.7l50-5.6l-0.9,7.4c0,0-10.4-1.3-14.2-0.3c-3.8,1-11.2,5.2-11.2,5.2l-6.3,8.1v1.9
		C287,234.5,271.9,231.6,269.6,217.7z"/>
	<path class="st12" d="M317.9,220.9c0,0-9.4-3.6-17.6-0.6s-13.4,13-13.4,13l2.7,1.4c0,0,18.6-1.4,19.5-2.2
		C310.1,231.7,317.9,220.9,317.9,220.9z"/>
	<polygon class="st1" points="268.9,209.7 269.7,218.4 319.6,211.7 318.8,205.8 	"/>
	<path class="st13" d="M300.5,234l-9.3,0.6c-11.3,0.8-21.1-7.8-21.9-19.1l-0.4-6.4l50.3-3.4l0.4,6.4
		C320.4,223.4,311.8,233.2,300.5,234z"/>
	<line class="st13" x1="269.5" y1="217.1" x2="318.8" y2="212.1"/>
	<path class="st13" d="M317.9,219.6c0,0-13.4-3.5-23,3.6s-8,11.3-8,11.3"/>
</g>
<g id="Layer_14">
	<path class="st14" d="M357.5,71.1c0,0-8.6-7.6-30.9-8.5s-38.7,3.5-38.7,3.5s-33.4,9.3-49.8,22.8s-22.9,30.2-25,42.4
		c-2,12.1,2.6,30.4,2.6,30.4s5.4,21.8,5.1,26.3c-0.3,4.5-1.8,9.3-3,11.1s-16.5,13.2-19.9,27.5s-2.7,28.5,3.9,37.2
		c6.5,8.7,22.9,18.8,22.9,18.8l13.3,4.6l11.2,2c0,0,7.4-9.9,9.4-11.9s16.5-11.9,16.5-11.9l10.2-4.4l0.4-16.1l-23.3-0.8
		c0,0-19.2-7.2-23.5-17.2s-4.8-20.1-4.8-20.1v-46.5l0.1-21.8c0,0,20.5,1.4,37.6-0.5s31.8-9.7,31.8-9.7l6.1-2.8
		c0,0,11.8,1.6,22.9,0.7s20.3-7.3,20.3-7.3s-3.7,12.2-4,18.2s0.4,13.8,1.5,18.7c1.2,4.9,7.2,28.3,7.4,29.3s2.1,16.6,2.7,19.9
		s-3.3,15.9-3.3,15.9s-8.7,13.4-8.7,15.9s-1.5,13.9-0.8,15.9c0.6,2-1,10.1-2.2,11.6s-10,6.1-10,6.1L332,272c0,0,6,14.4,22.8,20.8
		s26.6,2.6,32.7-0.9s7.2-8.9,7.2-8.9l5.6-17.3l7.9-6.7c0,0,9.7-3.7,13-14.5s2.4-24.2,2.4-24.2l-4.5-14.6c0,0-13.6-23.3-13.5-26.5
		c0.1-3.1,3.9-40.4,3.9-40.4s-1.5-14.8-4.9-25.6s-11.5-25-13.4-26.6C389.4,85.2,378,68.8,357.5,71.1z"/>
</g>
<g id="Layer_20">
	<path class="st3" d="M357.7,73.5c0,0,43.2,18.4,42.9,53.3s-13.2,32.2-10.8,46.9s21.4,28.7,21.4,49.5s-28.6,31.9-28,41.2
		c0.6,9.3-10.2,28.4-24,24.7C345.4,285.4,332,273,332,273s16.5,23.1,39.6,23.5s28.5-28.9,28.5-28.9l15.9-14c0,0,8.9-2.5,7.5-20.9
		s-3.8-26.6-7.2-32.5c-3.4-5.9-11.3-12.2-9.7-30.8c1.6-18.6,3.3-31.8,1.4-44.5C406.1,112.3,390.4,65.7,357.7,73.5z"/>
	<path class="st3" d="M316.9,119.2c0,0,31.5,3.5,44-20.9c0,0,5.7,21.7-28.2,27.9c-16,0.6-23.9-0.3-23.9-0.3L316.9,119.2z"/>
	<path class="st3" d="M332,89.1c0,0,8.1,12.7-4.6,27.9c-12.6,15.3-18.6,8.8-18.6,8.8S334.8,108.7,332,89.1z"/>
	<path class="st3" d="M222,134.2l10.5,4.4l1.7,65.9c0,0-0.4,28.8,18.5,35.7s33.2,5.8,33.2,5.8l-0.3,13.4l-15.9,8.8
		c0,0-10.5,8.4-12.7,11.3c-2.2,2.8-8.5,9.3-8.5,9.3l-12.1-2.1c0,0-9.4-7.5-16.4-19.9c-5.8-10.5,5.1-24.6,8.7-29.4
		c9.6-12.6-2.1-48.7-0.3-63.4S222,134.2,222,134.2z"/>
</g>
<g id="Layer_21">
	<path class="st15" d="M218.2,131.8c0,0,6.4,8,46.9,5s51.3-19.4,60.4-27.7s6.6-23.7,6.6-23.7S310.2,140,218.2,131.8z"/>
	<path class="st15" d="M213.7,150.6c0,0,19.1,39.1,12.5,51.7s-23.1,27.7-22.8,43.6s17.9,34.3,17.9,34.3s-31.9-14.7-24.6-45.8
		c5.8-24.9,20.3-28.8,23.5-40C223.3,183.9,213.7,150.6,213.7,150.6z"/>
	<path class="st15" d="M354.3,117.3c0,0-5.6,21.2-4.8,29.3c0.8,8.1,12.3,47.9,11.1,58.4c-1.2,10.5-5.5,20.4-5.5,20.4
		s-6.8,12.2-7,16.3s2.9,17.5-1.8,21.4c-4.7,3.9-11.8,7.8-11.8,7.8s13.6,6.3,20.9-4.4c7.2-10.7-1.9-22.4,2.6-27.5
		s21.3-18.6,17.1-41.7S350.4,156.6,354.3,117.3z"/>
</g>
<g id="Layer_1_1_">
	<path class="st13" d="M276.9,264.5c0,0,2.8,10.7,25.6,12.6s36.9-15.6,36.9-15.6"/>
	<path class="st13" d="M314.7,258.4c10.5,0.2,20.9,1.8,31,4.7"/>
	<path class="st13" d="M230.4,348.3c7.9-35.4,18.9-82.4,60.7-88.2"/>
	<path class="st13" d="M244.9,296.6C209.3,319,151.3,321,130.3,279c-14-28,7.1-56.2,13-84c2.5-11.6-11-7-17-8c-7-1-13-2-19-4
		c-9-4-18-9-22.3-18.3c-4.2,7.4,0.1,0.1,0,0C58.3,213,46.3,284,94.3,325c24,20,53.1,26,83.2,28"/>
	<path class="st13" d="M367.9,314.7c0,0,16.2,41.9-17,59c-20.8,10.7-73.2-8.7-103.4-20c-44.4-16.6-76.1,2.2-76.1,2.2
		s34.2,26.3,19.4,70.7c40.7-6.9,55.6,19.2,150.2,10.7c101.4-9.1,82.6-93.8,66.9-125.8c-7.4-15-16.6-22.3-16.6-22.3"/>
	<path class="st13" d="M348.2,239.6c-5.5,3.4-12,5.3-18.9,5.3h-58.9c-20,0-36.3-16.2-36.3-36.3V139"/>
	<path class="st13" d="M332,90.9c0,0-1.7,41.6-65.7,47.3c-36.5,3.2-42.8-3-42.8-3"/>
	<path class="st13" d="M308.8,125.9c0,0,28.7,4.7,43.4-6.7c3.6-2.8,10.3-10.4,8.8-20.9"/>
	<path class="st13" d="M353.3,118.3c0,0-6.6,17.3-3.8,32.3c4.4,23.3,16.5,50.9,8.4,69.2s-11.8,13.3-10,33.2
		c1.8,19.5-17.8,15.8-15.9,20.1c6.1,13.9,27,23.8,39.1,23.5c24-0.6,24.9-18,27-24.4c6.7-20,22.9-9.1,25.4-39.4
		c2.6-33.1-19.4-39.1-17.7-61.8c1.2-15.7,5.4-32,2.5-44.7c-7.2-31.3-25.5-58.6-50.6-54.8c-17.7-20.9-147.3-9.9-145.2,72.1
		c0.4,16.8,15.4,47.1,4.5,56.6c-24.6,21.4-21.5,44.7-20,53.1c1.9,11,20,33.3,51.4,35.6"/>
	<path class="st13" d="M147.2,396.6l-16.6,3.3c-2.6,0.6-5.2-1-5.8-3.5l-0.2-1.1c-0.6-2.6,1-5.2,3.5-5.8l18.4-4.4"/>
	<path class="st13" d="M151.4,411.5l-18.4,4.4c-2.6,0.6-5.2-1-5.8-3.5l-0.2-1.1c-0.6-2.6,1-5.2,3.5-5.8l18.4-4.4"/>
	<path class="st13" d="M163.2,421.4l-21.8,8.9c-2.4,1-5.2-0.1-6.3-2.5l-0.4-1c-1-2.4,0.1-5.2,2.5-6.3l16.1-6.8"/>
	<path class="st13" d="M173.4,428.2l-15.3,11.1c-2.1,1.6-5.1,1.1-6.7-1.1l-0.6-0.9c-1.6-2.1-1.1-5.1,1.1-6.7l12-8.8"/>
	<path class="st13" d="M192.7,418.2c0,0-4.4,10.6-19.3,10"/>
	<path class="st13" d="M171.3,356.4c-18.6,2.6-39.2,15.4-39.2,15.4l0,0c-0.3,2.6,1.6,4.9,4.2,5.1l11.8,1.2"/>
	<path class="st13" d="M153.9,371c0,0-9,9.9-6.9,14.5"/>
	<path class="st13" d="M148.8,391.6c0,0-3.1,4.8,1.2,10.5"/>
	<path class="st13" d="M151.3,406.8c0,0-1.3,3.7,4.5,8.1"/>
	<path class="st13" d="M158.9,418.2c0,0,2.5,3.3,8.3,4.7"/>
</g>
<g id="Layer_13">
	<path class="st13" d="M285.8,261.3v-15.4"/>
	<path class="st13" d="M319.3,245.9v12.4"/>
</g>
<g id="Layer_5">
	<path class="st13" d="M131.4,148.5l8.8-12.8c1.3-2.1,4-2.6,6.1-1.4l0.8,0.5c2.1,1.3,2.6,4,1.4,6.1l-9.3,14.6"/>
	<path class="st13" d="M119.1,141.3l9.3-14.7c1.3-2.1,4-2.7,6.1-1.3l0.8,0.5c2.1,1.3,2.6,4,1.4,6.1l-9.3,14.6"/>
	<path class="st13" d="M105,142.4l8.7-19.8c0.9-2.2,3.5-3.3,5.8-2.3l0.9,0.4c2.2,0.9,3.3,3.5,2.3,5.8l-6.3,14.8"/>
	<path class="st13" d="M93.9,144.4l3-17.1c0.4-2.4,2.7-4,5.1-3.6l1,0.2c2.4,0.4,4,2.7,3.6,5.1l-2.3,13.5"/>
	<path class="st13" d="M137.2,166.7c0,0-8.5-5.7-14.2,2.6"/>
	<path class="st13" d="M86.8,167.7c0,0-3.1-14.1,7.1-23.4"/>
	<path class="st13" d="M139.7,187.1l17.5-31.8l0,0c-1.5-1.9-4.2-2.2-6-0.7l-13.8,10.9"/>
	<path class="st13" d="M141.7,162c0,0,0.9-4.2-3.1-6.3"/>
	<path class="st13" d="M133.5,152.8c0,0-1-5.1-7.5-6.2"/>
	<path class="st13" d="M122.2,144.4c0,0-1.5-3.3-8.2-2.5"/>
	<path class="st13" d="M109.8,141.8c0,0-3.8-0.6-8.5,2.2"/>
</g>
<g id="Layer_15">
	<path class="st2" d="M256.1,187L256.1,187c-4.3,0-7.8-3.5-7.8-7.8v-9.6c0-4.3,3.5-7.8,7.8-7.8l0,0c4.3,0,7.8,3.5,7.8,7.8v9.6
		C264,183.5,260.5,187,256.1,187z"/>
	<path class="st13" d="M241.2,161.7c-1.2-6.4,3-12.2,9.2-13.8c4.3-1.1,7.1-0.5,9.4,0.5"/>
	<path class="st1" d="M258.6,177.2L258.6,177.2c-2.2,0-3.9-1.8-3.9-3.9v-4.8c0-2.2,1.8-3.9,3.9-3.9l0,0c2.2,0,3.9,1.8,3.9,3.9v4.8
		C262.6,175.5,260.8,177.2,258.6,177.2z"/>
	<path class="st1" d="M254.7,180.7L254.7,180.7c-1.2,0-2.1-0.9-2.1-2.1V176c0-1.2,0.9-2.1,2.1-2.1l0,0c1.2,0,2.1,0.9,2.1,2.1v2.6
		C256.9,179.7,255.9,180.7,254.7,180.7z"/>
	<path class="st2" d="M312.3,187L312.3,187c-4.3,0-7.8-3.5-7.8-7.8v-9.6c0-4.3,3.5-7.8,7.8-7.8l0,0c4.3,0,7.8,3.5,7.8,7.8v9.6
		C320.1,183.5,316.6,187,312.3,187z"/>
	<path class="st13" d="M307.2,145.3c2.5-1.7,6-2.6,10.8-1.3c5,1.3,10.5,7.5,9.2,13.8"/>
	<path class="st1" d="M314.8,177.2L314.8,177.2c-2.2,0-3.9-1.8-3.9-3.9v-4.8c0-2.2,1.8-3.9,3.9-3.9l0,0c2.2,0,3.9,1.8,3.9,3.9v4.8
		C318.8,175.5,317,177.2,314.8,177.2z"/>
	<path class="st1" d="M310.9,180.7L310.9,180.7c-1.2,0-2.1-0.9-2.1-2.1V176c0-1.2,1-2.1,2.1-2.1l0,0c1.2,0,2.1,0.9,2.1,2.1v2.6
		C313.1,179.7,312.1,180.7,310.9,180.7z"/>
	<line class="st13" x1="244.4" y1="178.3" x2="249.5" y2="178.3"/>
	<line class="st13" x1="244.9" y1="183.2" x2="250.1" y2="183.2"/>
	<line class="st13" x1="318.8" y1="178.3" x2="323.9" y2="178.3"/>
	<line class="st13" x1="316.7" y1="183.2" x2="321.9" y2="183.2"/>
	<polyline class="st13" points="278.6,182.4 278.6,156.4 275.3,156.4 	"/>
	<polyline class="st13" points="277.4,188 269.2,182.4 283.1,182.4 	"/>
</g>
<g id="Layer_4">
</g>
<g id="Layer_10_copy">
	<g>
		<g>
			<g>
				<defs>
					<circle id="SVGID_3_" cx="252.6" cy="252.6" r="236.3"/>
				</defs>
				<clipPath id="SVGID_4_">
					<use xlink:href="#SVGID_3_"  style="overflow:visible;"/>
				</clipPath>
				<g class="st16">
					<polygon class="st17" points="102.4,440.3 135.9,308.6 -69.1,273.1 -59.3,399.8 					"/>
					<g>
						<g>
							<path class="st18" d="M22.9,339.9c17-4.5,33.9-9,50.9-13.6c-0.6-1.5-1.3-3-1.9-4.6c-8.5,4.9-16.9,9.7-25.4,14.6
								c-3.9,2.3-8,4.4-11.8,6.8c-3.3,2.1-6.2,4.9-6.5,9c-0.1,1.1,0.8,2.1,1.8,2.4c2.7,0.8,5.4,0.5,8.1,0.1c2.8-0.4,5.5-0.9,8.3-1.4
								c5.7-0.9,11.4-1.9,17-2.8c11.3-1.9,22.7-3.7,34-5.6c6.4-1,12.8-2.1,19.2-3.1c-0.4-1.6-0.9-3.2-1.3-4.8
								c-18.8,5.2-37.5,10.5-56.3,15.7c-5.3,1.5-10.6,3-15.9,4.4c-1.9,0.5-2.3,2.8-1.1,4.2c2.2,2.5,5.5,3.4,8.8,3.5
								c3.7,0.1,7.4-0.5,11.1-0.8c8.4-0.8,16.9-1.5,25.3-2.3c-0.4-1.5-0.8-3.1-1.3-4.7c-8.2,6.3-16.5,12.6-24.7,18.9
								c-1.1,0.9-1.6,2.1-0.9,3.4c1.6,3.2,5.4,4.1,8.7,4.1c4.2,0,8.3-0.5,12.5-0.8c9-0.6,18.1-1.2,27.1-1.8
								c-0.6-1.4-1.2-2.9-1.8-4.3c-3.6,3.6-8,6-13,7.1c-3.1,0.7-1.8,5.5,1.3,4.8c5.8-1.3,11.1-4.2,15.2-8.4c1.4-1.5,0.5-4.4-1.8-4.3
								c-8.4,0.6-16.8,1.1-25.2,1.7c-4.1,0.3-8.2,0.5-12.3,0.8c-1.4,0.1-2.8,0.2-4.1,0c-1.2-0.2-1.9-0.5-2.4-1.5
								c-0.3,1.1-0.6,2.3-0.9,3.4c8.2-6.3,16.5-12.6,24.7-18.9c0.9-0.7,1.5-1.7,1.2-2.8c-0.3-1-1.3-1.9-2.4-1.8
								c-7.9,0.7-15.9,1.5-23.8,2.2c-3.6,0.3-7.3,0.8-11,0.9c-2.5,0.1-5.2,0-6.9-2c-0.4,1.4-0.7,2.8-1.1,4.2
								c18.8-5.2,37.5-10.5,56.3-15.7c5.3-1.5,10.6-3,15.9-4.4c1.3-0.4,2.1-1.8,1.8-3.1c-0.4-1.4-1.7-2-3.1-1.8
								c-22.2,3.6-44.4,7.3-66.6,10.9c-3,0.5-6.1,1-9.1,1.5c-2.7,0.4-5.6,1.2-8.3,0.4c0.6,0.8,1.2,1.6,1.8,2.4
								c0.2-2.8,3.9-4.6,6-5.8c3.9-2.2,7.7-4.4,11.6-6.7c7.9-4.5,15.8-9,23.6-13.6c2.5-1.4,0.8-5.3-1.9-4.6
								c-17,4.5-33.9,9-50.9,13.6C18.5,335.9,19.8,340.8,22.9,339.9L22.9,339.9z"/>
						</g>
					</g>
					<polygon class="st19" points="102.4,440.3 135.9,308.6 -69.1,273.1 -59.3,399.8 					"/>
				</g>
			</g>
		</g>
	</g>
</g>
<circle class="st1" cx="159.7" cy="72.6" r="38.7"/>
<path class="st1" d="M175.7,73.9l17.2,31.2c0.9,1.6,0.3,3.7-1.3,4.5L143,91.9c-0.9-1.6-0.3-3.7,1.3-4.5l26.8-14.8
	C172.7,71.7,174.8,72.3,175.7,73.9z"/>
<g class="st20">
	<path class="st14" d="M158.3,58.4c0.5,0.2,0.9,0.5,1.3,0.8c0.4,0.3,0.7,0.7,0.8,1.1c0.2,0.4,0.3,0.9,0.2,1.4
		c-0.6,5.9-0.8,10.7-0.8,14.5c0.1,3.8,0.2,6.6,0.5,8.6c0.1,0.5,0,1-0.2,1.4c-0.2,0.4-0.5,0.8-0.8,1.2c-0.4,0.3-0.8,0.6-1.3,0.8
		c-0.5,0.2-1.1,0.3-1.7,0.3c-0.6,0-1.1-0.1-1.6-0.3c-0.5-0.2-0.9-0.4-1.3-0.7c-0.4-0.3-0.6-0.7-0.9-1.1c-0.2-0.4-0.3-0.9-0.3-1.3
		c0-0.8,0-1.8,0-2.8c0-1.1-0.1-2.2-0.1-3.4c-2-0.1-3.5-0.2-4.6-0.3c-1.1,0-2,0-2.6,0c0.1,2.4,0.2,4.3,0.4,5.8c0.1,0.5,0,1.1-0.2,1.6
		c-0.2,0.5-0.5,0.9-0.9,1.3c-0.4,0.4-0.9,0.7-1.5,0.9c-0.6,0.2-1.2,0.3-1.9,0.3h-0.5h-0.4c-1,0-1.8-0.3-2.5-1
		c-0.7-0.7-1.1-1.5-1.2-2.4c-0.1-1.6-0.2-3.4-0.3-5.5c-0.1-2.1-0.1-4.2-0.1-6.3c0-2.1,0-4.2,0-6.2c0-2,0.1-3.7,0.1-5.2
		c0-0.5,0.1-1,0.3-1.5c0.2-0.4,0.5-0.8,0.8-1.2c0.3-0.3,0.7-0.6,1.2-0.8c0.4-0.2,0.9-0.3,1.5-0.3h0.5h0.2h0.2h0.6
		c0.7,0,1.3,0.1,1.9,0.3c0.6,0.2,1.1,0.5,1.5,0.9c0.4,0.4,0.7,0.8,1,1.3c0.2,0.5,0.3,1,0.2,1.6c-0.2,1.9-0.3,3.7-0.4,5.3
		c-0.1,1.6-0.2,3.2-0.2,4.6c1.2-0.1,2.3-0.1,3.4-0.2c1.1-0.1,2.2-0.2,3.4-0.3c-0.1-1.9-0.2-3.7-0.3-5.5c-0.1-1.7-0.2-3.3-0.3-4.6
		c-0.1-1,0.3-1.8,1.1-2.5c0.8-0.7,1.8-1,3-1h1.3C157.2,58.1,157.7,58.2,158.3,58.4z"/>
	<path class="st14" d="M168.1,66.7c0.5,0,1,0.1,1.6,0.2c0.6,0.2,1.1,0.4,1.7,0.7c0.5,0.3,0.9,0.6,1.3,1c0.3,0.4,0.5,0.8,0.4,1.3
		c-0.2,2-0.3,3.6-0.4,5c-0.1,1.3-0.1,2.5-0.2,3.4c0,0.9,0,1.7,0,2.3s0,1.2,0,1.6c0,0.5,0.1,1,0.1,1.4c0,0.5,0.1,1,0.2,1.7
		c0,0.6-0.1,1.1-0.4,1.5c-0.3,0.4-0.6,0.7-1.1,1c-0.5,0.3-1,0.4-1.5,0.6c-0.6,0.1-1.1,0.2-1.7,0.2c-1.5,0-2.5-0.3-3.2-1
		c-0.6-0.7-1-1.5-1-2.4c0-1.4,0-2.8-0.1-3.9c-0.1-1.2-0.1-2.4-0.2-3.5c-0.1-1.2-0.2-2.3-0.3-3.5c-0.1-1.2-0.2-2.5-0.3-4
		c0-0.5,0.1-0.9,0.3-1.3c0.2-0.4,0.5-0.8,0.9-1.1c0.4-0.3,0.8-0.6,1.3-0.8s1-0.3,1.5-0.3H168.1z M168.1,65.5c-0.5,0-1.1-0.1-1.6-0.3
		c-0.5-0.2-0.9-0.5-1.3-0.9c-0.4-0.4-0.6-0.8-0.8-1.3c-0.2-0.5-0.3-1-0.3-1.6c0-0.6,0.1-1.1,0.3-1.6s0.5-0.9,0.8-1.3
		c0.4-0.4,0.8-0.7,1.3-0.9c0.5-0.2,1-0.3,1.6-0.3c0.5,0,1.1,0.1,1.6,0.3c0.5,0.2,0.9,0.5,1.3,0.9c0.4,0.4,0.6,0.8,0.8,1.3
		c0.2,0.5,0.3,1,0.3,1.6c0,0.6-0.1,1.1-0.3,1.6c-0.2,0.5-0.5,0.9-0.8,1.3c-0.4,0.4-0.8,0.7-1.3,0.9
		C169.1,65.4,168.6,65.5,168.1,65.5z"/>
	<path class="st14" d="M178.8,81.3c-0.6,0-1.1-0.4-1.5-1.3c-0.4-0.9-0.7-2-1-3.3c-0.2-1.3-0.4-2.8-0.5-4.3c-0.1-1.6-0.2-3-0.2-4.4
		c0-1.4,0-2.6,0-3.6s0-1.6,0-1.9c0-0.3,0.1-0.8,0.1-1.3c0.1-0.5,0.2-1,0.4-1.5c0.2-0.5,0.5-0.9,1-1.2c0.4-0.3,1-0.5,1.7-0.5
		c0.5,0,1,0.1,1.4,0.2s0.8,0.4,1.1,0.7c0.3,0.3,0.6,0.7,0.8,1.3c0.2,0.5,0.3,1.2,0.3,2c0,0.6,0,1.4,0,2.6s0,2.4-0.1,3.8
		c-0.1,1.4-0.2,2.8-0.3,4.3s-0.4,2.8-0.6,4c-0.3,1.2-0.6,2.2-1,3C179.9,80.8,179.4,81.2,178.8,81.3z M179,83.9
		c0.6,0,1.1,0.2,1.6,0.7c0.4,0.4,0.6,1,0.6,1.6c0,0.6-0.2,1.2-0.6,1.6c-0.4,0.4-1,0.6-1.6,0.6c-0.6,0-1.2-0.2-1.6-0.6
		s-0.6-1-0.6-1.6c0-0.6,0.2-1.2,0.6-1.6C177.8,84.1,178.3,83.9,179,83.9z"/>
</g>
</svg>
