<?xml version="1.0" encoding="utf-8"?>
<!-- Generator: Adobe Illustrator 25.0.1, SVG Export Plug-In . SVG Version: 6.00 Build 0)  -->
<svg version="1.1" xmlns="http://www.w3.org/2000/svg" xmlns:xlink="http://www.w3.org/1999/xlink" x="0px" y="0px"
	 viewBox="0 0 505.23 505.23" style="enable-background:new 0 0 505.23 505.23;" xml:space="preserve">
<style type="text/css">
	.st0{fill:#00C9FF;}
	.st1{fill:#FFFFFF;}
	.st2{fill:#00278A;}
	.st3{fill:#002CF1;}
	.st4{clip-path:url(#SVGID_2_);}
	.st5{fill:#008BFF;}
	.st6{fill:none;stroke:#0085FF;stroke-width:3;stroke-linecap:round;stroke-linejoin:round;stroke-miterlimit:10;}
	.st7{fill:#FFC900;}
	.st8{fill:#FFAF00;}
	.st9{fill:#FFC900;stroke:#FFC900;stroke-width:6;stroke-linecap:round;stroke-linejoin:round;stroke-miterlimit:10;}
	.st10{fill:none;stroke:#FFC900;stroke-width:3;stroke-linecap:round;stroke-linejoin:round;stroke-miterlimit:10;}
	.st11{fill:#00204C;}
	.st12{fill:#F614AE;}
	.st13{fill:none;stroke:#00278A;stroke-width:3;stroke-linecap:round;stroke-linejoin:round;stroke-miterlimit:10;}
	.st14{fill:#0000FD;}
	.st15{fill:#005AFD;}
	.st16{clip-path:url(#SVGID_4_);}
	.st17{fill:#AEC9FF;}
	.st18{fill:#C0DFFF;}
	.st19{fill:none;stroke:#008BFF;stroke-width:3;stroke-linecap:round;stroke-linejoin:round;stroke-miterlimit:10;}
</style>
<g id="Layer_10">
	<circle class="st0" cx="252.62" cy="252.62" r="252.62"/>
</g>
<g id="Layer_10_copy_3">
	<g>
		<g>
			<path class="st1" d="M106.73,441.02c-0.55,0-1.1-0.18-1.54-0.53c-22.92-18.01-42.17-39.79-57.21-64.74
				c-0.42-0.69-0.47-1.54-0.15-2.28c0.32-0.74,0.98-1.28,1.76-1.45l2.49-0.54c0.29-0.06,0.57-0.09,0.85-0.09
				c0.39,0,0.78,0.06,1.16,0.17l125.34,38.41c1.68,0.52,2.81,2.04,2.83,3.79c0.01,1.76-1.1,3.3-2.77,3.84L107.5,440.9
				C107.25,440.98,106.99,441.02,106.73,441.02z"/>
			<g>
				<path class="st1" d="M52.93,373.88c0.15,0,0.3,0.02,0.44,0.06l125.32,38.4c0.63,0.19,1.06,0.77,1.06,1.42
					c0.01,0.65-0.42,1.24-1.04,1.44l-71.98,23.31c-22.53-17.7-41.75-39.42-56.61-64.06l2.49-0.54
					C52.71,373.9,52.82,373.88,52.93,373.88 M52.93,368.88c-0.46,0-0.92,0.05-1.36,0.14l-2.52,0.55c-1.58,0.34-2.89,1.43-3.53,2.91
					c-0.64,1.48-0.52,3.18,0.31,4.56c15.2,25.21,34.65,47.21,57.81,65.41c0.89,0.7,1.98,1.07,3.09,1.07c0.52,0,1.04-0.08,1.54-0.24
					l71.98-23.31c2.71-0.88,4.52-3.38,4.5-6.24c-0.02-2.85-1.87-5.32-4.59-6.16l-125.32-38.4C54.2,368.98,53.57,368.88,52.93,368.88
					L52.93,368.88z"/>
			</g>
		</g>
		<g>
			<path class="st1" d="M111.56,444.71c-0.53,0-1.06-0.17-1.49-0.5c-0.62-0.46-1.24-0.94-1.85-1.41l-0.59-0.46
				c-0.74-0.56-1.1-1.49-0.95-2.41c0.16-0.92,0.81-1.67,1.69-1.96l70.34-22.78c0.64-0.21,1.05-0.77,1.04-1.44s-0.42-1.23-1.06-1.42
				l-125.33-38.4c-0.13-0.04-0.28-0.06-0.43-0.06c-0.11,0-0.22,0.01-0.33,0.04l-3.3,0.72c-0.18,0.04-0.36,0.06-0.53,0.06
				c-0.87,0-1.7-0.46-2.16-1.23l-0.43-0.73c-0.31-0.52-0.62-1.04-0.92-1.57c-0.4-0.69-0.44-1.53-0.12-2.26
				c0.32-0.73,0.97-1.26,1.75-1.43l4.12-0.9c0.62-0.13,1.26-0.2,1.89-0.2c0.88,0,1.77,0.13,2.63,0.39l125.33,38.41
				c3.77,1.16,6.33,4.59,6.36,8.53c0.03,3.95-2.47,7.42-6.23,8.64l-68.69,22.24C112.08,444.67,111.82,444.71,111.56,444.71z"/>
			<g>
				<path class="st1" d="M52.93,368.88c0.64,0,1.27,0.09,1.91,0.28l125.32,38.4c2.72,0.84,4.57,3.31,4.59,6.16
					c0.02,2.85-1.79,5.36-4.5,6.24l-68.69,22.25c-0.81-0.61-1.62-1.23-2.42-1.84l70.34-22.78c1.67-0.54,2.78-2.08,2.77-3.84
					c-0.01-1.75-1.15-3.28-2.83-3.79l-125.33-38.4c-0.38-0.11-0.77-0.17-1.16-0.17c-0.28,0-0.56,0.03-0.85,0.09l-3.3,0.72
					c-0.44-0.76-0.9-1.51-1.33-2.27l4.12-0.9C52.01,368.93,52.47,368.88,52.93,368.88 M52.93,363.88c-0.81,0-1.62,0.09-2.4,0.25
					l-4.14,0.9c-1.56,0.34-2.86,1.4-3.51,2.86c-0.65,1.46-0.56,3.13,0.23,4.52c0.32,0.55,0.64,1.1,0.96,1.64l0.4,0.67
					c0.91,1.55,2.56,2.47,4.31,2.47c0.35,0,0.71-0.04,1.06-0.11l3.05-0.66l122.04,37.39l-67.33,21.8c-1.77,0.57-3.07,2.08-3.39,3.91
					s0.41,3.69,1.89,4.82l0.56,0.43c0.63,0.49,1.27,0.97,1.91,1.45c0.87,0.65,1.92,0.99,2.99,0.99c0.52,0,1.04-0.08,1.54-0.24
					l68.69-22.25c4.8-1.55,8-5.98,7.96-11.03c-0.04-5.04-3.31-9.42-8.12-10.9L56.3,364.39C55.18,364.05,54.05,363.88,52.93,363.88
					L52.93,363.88z"/>
			</g>
		</g>
		<g>
			<path class="st1" d="M109.14,442.87c-0.54,0-1.08-0.18-1.52-0.52c0,0-1.12-0.85-1.46-1.12c-0.73-0.57-1.09-1.49-0.93-2.41
				c0.16-0.91,0.81-1.66,1.69-1.95l71.33-23.1l-125.32-38.4L50.11,376c-0.18,0.04-0.36,0.06-0.53,0.06c-0.87,0-1.69-0.45-2.15-1.22
				l-0.81-1.37c-0.41-0.69-0.46-1.54-0.14-2.27s0.98-1.27,1.76-1.44l3.3-0.72c0.46-0.1,0.92-0.15,1.38-0.15
				c0.64,0,1.28,0.09,1.89,0.28l125.34,38.41c2.73,0.84,4.57,3.31,4.6,6.16c0.02,2.86-1.79,5.36-4.5,6.24l-70.34,22.78
				C109.66,442.83,109.4,442.87,109.14,442.87z"/>
			<g>
				<path class="st1" d="M52.93,371.39c0.39,0,0.78,0.06,1.16,0.17l125.33,38.4c1.68,0.52,2.81,2.04,2.83,3.79
					c0.01,1.76-1.1,3.3-2.77,3.84l-70.34,22.78c-0.48-0.37-0.97-0.74-1.45-1.11l71.33-23.1c1.04-0.34,1.74-1.3,1.73-2.4
					c-0.01-1.1-0.72-2.05-1.77-2.37l-125.32-38.4c-0.24-0.07-0.49-0.11-0.73-0.11c-0.18,0-0.35,0.02-0.53,0.06l-2.82,0.61
					c-0.27-0.45-0.54-0.91-0.8-1.36l3.3-0.72C52.36,371.41,52.65,371.39,52.93,371.39 M52.93,366.39c-0.64,0-1.28,0.07-1.9,0.2
					l-3.32,0.72c-1.57,0.34-2.87,1.41-3.52,2.88s-0.54,3.16,0.27,4.54c0.27,0.46,0.55,0.93,0.82,1.39c0.91,1.53,2.56,2.44,4.29,2.44
					c0.35,0,0.71-0.04,1.06-0.11l2.18-0.47l117.11,35.89l-63.78,20.65c-1.76,0.57-3.06,2.07-3.38,3.89
					c-0.32,1.82,0.39,3.68,1.86,4.81c0.35,0.28,0.71,0.55,1.07,0.82l0.41,0.31c0.88,0.68,1.95,1.03,3.04,1.03
					c0.52,0,1.04-0.08,1.54-0.24l70.34-22.78c3.76-1.21,6.26-4.68,6.23-8.64c-0.03-3.95-2.59-7.37-6.36-8.53L55.55,366.78
					C54.69,366.51,53.82,366.39,52.93,366.39L52.93,366.39z"/>
			</g>
		</g>
		<g>
			<path class="st1" d="M50.11,376.96c-1.15,0-2.19-0.8-2.44-1.97c-0.29-1.35,0.56-2.68,1.91-2.97l2.49-0.54
				c0.18-0.04,0.36-0.06,0.53-0.06c1.15,0,2.19,0.8,2.44,1.97c0.29,1.35-0.56,2.68-1.91,2.97l-2.49,0.54
				C50.47,376.94,50.29,376.96,50.11,376.96z"/>
			<g>
				<path class="st1" d="M52.61,373.92l-2.49,0.54L52.61,373.92 M52.61,368.92c-0.35,0-0.71,0.04-1.07,0.12l-2.49,0.54
					c-2.7,0.59-4.41,3.25-3.82,5.95c0.51,2.34,2.58,3.94,4.88,3.94c0.35,0,0.71-0.04,1.07-0.12l2.49-0.54
					c2.7-0.59,4.41-3.25,3.82-5.95C56.99,370.51,54.91,368.92,52.61,368.92L52.61,368.92z"/>
			</g>
		</g>
		<g>
			<path class="st1" d="M107.69,441.76c-0.55,0-1.09-0.18-1.53-0.53l-0.48-0.37c-0.73-0.57-1.09-1.49-0.93-2.41s0.81-1.66,1.69-1.95
				l70.15-22.72L52.91,375.9l-2.53,0.55c-0.18,0.04-0.36,0.06-0.53,0.06c-0.86,0-1.68-0.45-2.14-1.21l-0.27-0.46
				c-0.42-0.69-0.47-1.54-0.15-2.28s0.98-1.28,1.76-1.45l2.82-0.62c0.36-0.08,0.71-0.11,1.06-0.11c0.49,0,0.98,0.07,1.45,0.21
				L179.71,409c2.1,0.65,3.52,2.55,3.53,4.74c0.02,2.2-1.37,4.12-3.46,4.8l-71.33,23.1C108.21,441.72,107.95,441.76,107.69,441.76z"
				/>
			<g>
				<path class="st1" d="M52.93,372.88c0.25,0,0.49,0.04,0.73,0.11l125.32,38.4c1.05,0.32,1.76,1.27,1.77,2.37
					c0.01,1.1-0.69,2.06-1.73,2.4l-71.33,23.1c-0.16-0.12-0.32-0.24-0.48-0.37l71.65-23.2c0.83-0.27,1.39-1.04,1.38-1.92
					c-0.01-0.88-0.58-1.64-1.41-1.9l-125.32-38.4c-0.19-0.06-0.39-0.09-0.58-0.09c-0.14,0-0.28,0.01-0.43,0.04l-2.66,0.58
					c-0.09-0.15-0.18-0.3-0.27-0.45l2.82-0.61C52.57,372.9,52.75,372.88,52.93,372.88 M52.93,367.88c-0.53,0-1.05,0.06-1.57,0.17
					l-2.84,0.62c-1.57,0.34-2.88,1.42-3.52,2.9c-0.64,1.48-0.53,3.17,0.29,4.55l0.11,0.18l0.17,0.28c0.92,1.53,2.56,2.43,4.29,2.43
					c0.35,0,0.71-0.04,1.06-0.11l1.89-0.41l115.47,35.38l-62.6,20.27c-1.76,0.57-3.06,2.06-3.38,3.89
					c-0.32,1.82,0.39,3.67,1.84,4.81c0.1,0.08,0.2,0.16,0.31,0.23l0.19,0.14c0.89,0.69,1.97,1.05,3.07,1.05
					c0.52,0,1.04-0.08,1.54-0.24l71.33-23.1c3.13-1.01,5.22-3.9,5.19-7.2c-0.03-3.29-2.16-6.14-5.3-7.11l-125.32-38.4
					C54.39,367.99,53.66,367.88,52.93,367.88L52.93,367.88z"/>
			</g>
		</g>
		<g>
			<path class="st1" d="M107.21,441.39c-0.55,0-1.1-0.18-1.54-0.53l-0.48-0.37c-0.73-0.57-1.08-1.5-0.92-2.4
				c0.16-0.91,0.81-1.66,1.69-1.94l68.96-22.33l-122.04-37.4l-2.24,0.49c-0.18,0.04-0.36,0.06-0.53,0.06
				c-0.86,0-1.68-0.45-2.14-1.21l-0.27-0.46c-0.41-0.69-0.47-1.54-0.15-2.28c0.32-0.74,0.98-1.28,1.76-1.45l2.66-0.58
				c0.32-0.07,0.64-0.1,0.96-0.1c0.45,0,0.89,0.07,1.31,0.19l125.33,38.4c1.89,0.58,3.17,2.29,3.18,4.27
				c0.02,1.98-1.24,3.71-3.12,4.32l-71.65,23.2C107.73,441.35,107.47,441.39,107.21,441.39z"/>
			<g>
				<path class="st1" d="M52.93,373.39c0.2,0,0.39,0.03,0.58,0.09l125.32,38.4c0.84,0.26,1.41,1.02,1.41,1.9
					c0.01,0.88-0.55,1.65-1.38,1.92l-71.65,23.2c-0.16-0.12-0.32-0.24-0.48-0.37l71.98-23.31c0.62-0.2,1.04-0.78,1.04-1.44
					c-0.01-0.66-0.43-1.23-1.06-1.42l-125.32-38.4c-0.14-0.04-0.29-0.06-0.44-0.06c-0.11,0-0.21,0.01-0.32,0.03l-2.49,0.54
					c-0.09-0.15-0.18-0.3-0.27-0.45l2.66-0.58C52.64,373.4,52.79,373.39,52.93,373.39 M52.93,368.39c-0.5,0-0.99,0.05-1.47,0.16
					l-2.67,0.58c-1.57,0.34-2.89,1.42-3.53,2.9s-0.53,3.17,0.3,4.56l0.1,0.17l0.17,0.29c0.92,1.52,2.55,2.42,4.28,2.42
					c0.35,0,0.71-0.04,1.06-0.11l1.6-0.35l113.82,34.88l-61.42,19.89c-1.76,0.57-3.06,2.06-3.38,3.88
					c-0.32,1.82,0.38,3.67,1.83,4.81c0.11,0.08,0.21,0.16,0.32,0.25l0.17,0.13c0.89,0.7,1.98,1.06,3.08,1.06
					c0.52,0,1.04-0.08,1.54-0.24l71.65-23.2c2.92-0.94,4.87-3.64,4.84-6.72c-0.03-3.07-2.01-5.73-4.95-6.64l-125.33-38.4
					C54.31,368.49,53.62,368.39,52.93,368.39L52.93,368.39z"/>
			</g>
		</g>
	</g>
</g>
<g id="Layer_10_copy_5">
	<g>
		<path class="st1" d="M104.83,439.5c-0.56,0-1.11-0.19-1.56-0.55c0,0-2.34-1.88-2.6-2.09c-45-37.15-74.79-89.19-83.89-146.53
			l-0.1-0.64c-0.05-0.31-0.1-0.63-0.15-0.94c-0.05-0.31-0.22-1.58-0.22-1.58c-0.11-0.79,0.16-1.59,0.73-2.15
			c0.47-0.46,1.1-0.71,1.74-0.71c0.14,0,0.28,0.01,0.43,0.04l117.36,20.3c1.09,0.19,2.07,0.83,2.67,1.76
			c0.6,0.93,0.79,2.08,0.52,3.16l-32.51,128.05c-0.21,0.82-0.82,1.49-1.63,1.75C105.37,439.45,105.1,439.5,104.83,439.5z"/>
		<path class="st1" d="M18.78,286.8l117.36,20.3c0.41,0.07,0.78,0.31,1,0.66c0.23,0.35,0.3,0.78,0.2,1.19L104.83,437
			c-0.43-0.34-0.86-0.69-1.29-1.04s-0.86-0.69-1.28-1.04c-43.41-35.84-73.79-86.9-83.01-145c-0.08-0.52-0.17-1.04-0.25-1.57
			C18.92,287.85,18.86,287.32,18.78,286.8 M18.78,281.8c-1.29,0-2.55,0.5-3.49,1.42c-1.15,1.12-1.69,2.72-1.46,4.3
			c0.03,0.21,0.06,0.42,0.09,0.63c0.04,0.32,0.09,0.64,0.14,0.96c0.05,0.33,0.1,0.66,0.16,0.99l0.1,0.61
			c9.19,57.94,39.3,110.53,84.76,148.07c0.26,0.22,0.53,0.43,0.8,0.64c0.17,0.14,0.34,0.28,0.52,0.41c0.36,0.3,0.73,0.59,1.1,0.88
			l0.22,0.17c0.9,0.72,2.01,1.1,3.13,1.1c0.53,0,1.07-0.08,1.59-0.26c1.61-0.54,2.84-1.86,3.26-3.51l32.51-128.05
			c0.44-1.75,0.13-3.62-0.85-5.14c-0.98-1.51-2.57-2.56-4.34-2.87l-117.36-20.3C19.35,281.83,19.06,281.8,18.78,281.8L18.78,281.8z"
			/>
	</g>
</g>
<g id="Layer_24">
	<g>
		<path class="st1" d="M155.25,444.28c-0.46,0-0.93-0.04-1.39-0.11c-2.32-0.37-4.36-1.61-5.74-3.51l-0.64-0.88
			c-1.38-1.9-1.94-4.22-1.58-6.54c0.03-0.17,0.06-0.33,0.09-0.5L142.9,434c-1.05,0.45-2.2,0.68-3.37,0.68
			c-1.13,0-2.25-0.22-3.31-0.65c-2.18-0.88-3.88-2.56-4.79-4.72l-0.43-1c-0.91-2.16-0.93-4.55-0.05-6.73
			c0.22-0.55,0.5-1.08,0.82-1.56c-1.59-0.02-3.14-0.47-4.51-1.31c-2-1.23-3.4-3.17-3.94-5.45l-0.25-1.06
			c-0.54-2.29-0.16-4.65,1.07-6.65c0.54-0.87,1.2-1.62,1.98-2.25c-2.52-1.06-4.47-3.27-5.14-6.09l-0.25-1.06
			c-1.12-4.71,1.8-9.46,6.52-10.58l15.74-3.74c0.01-0.06,0.02-0.12,0.04-0.19l-7.1-0.73c-4.76-0.49-8.23-4.75-7.74-9.51
			c0.13-1.23,0.83-2.35,1.87-2.99c0.69-0.43,14.11-8.67,29.25-13.31c-36.86-5.08-55.38-16.98-67.53-27.1
			c-22.71-19.39-34.49-47.24-34.1-80.54c0.3-26.06,8.06-54.85,21.85-81.09c0.17-0.42,0.37-0.79,0.56-1.12
			c0.29-0.52,0.75-1.36,1.45-2.61c0.02-0.03,0.24-0.37,0.24-0.37c0.02-0.02,0.15-0.2,0.16-0.21c0.04-0.06,0.15-0.17,0.15-0.17
			c0.03-0.03,0.2-0.2,0.21-0.21c0.02-0.02,0.08-0.08,0.09-0.08c0.15-5.01,1.53-12.89,7.81-19.22l2.74-15.83
			c0.38-2.21,1.6-4.14,3.44-5.43c1.42-1,3.09-1.53,4.83-1.53c0.48,0,0.97,0.04,1.44,0.12l0.99,0.17c2.17,0.38,4.07,1.56,5.36,3.34
			l1-2.28c0.86-2.02,2.48-3.62,4.56-4.46c1.01-0.41,2.08-0.62,3.16-0.62c1.12,0,2.23,0.22,3.27,0.67l0.92,0.39
			c2.51,1.06,4.23,3.2,4.86,5.65c1.01-0.84,2.22-1.44,3.54-1.73c0.6-0.13,1.22-0.2,1.83-0.2c1.59,0,3.15,0.46,4.5,1.32l0.84,0.54
			c1.89,1.21,3.2,3.08,3.69,5.27c0.17,0.78,0.23,1.57,0.19,2.35c0.82-0.26,1.68-0.39,2.57-0.39c1.6,0,3.16,0.46,4.51,1.31l0.85,0.54
			c1.89,1.2,3.2,3.07,3.69,5.27c0.49,2.19,0.09,4.44-1.11,6.33l-7.24,11.36l4.01-3.17c1.48-1.17,3.25-1.79,5.13-1.79
			c0.33,0,0.65,0.02,0.98,0.06c2.2,0.26,4.17,1.36,5.54,3.1c1,1.26,1.14,2.99,0.37,4.4l-15.64,28.52c0.04,0.05,0.07,0.11,0.1,0.17
			c0.16,0.15,0.3,0.31,0.44,0.47c1.96,2.3,2.53,5.49,1.68,9.48c-1.84,8.67-5.1,17.36-8.25,25.77c-7.25,19.33-14.09,37.59-5.09,55.61
			c7.03,14.05,19.19,23.85,35.17,28.33c6.55,1.84,13.7,2.77,21.23,2.77c18.13,0,37.27-5.49,52.5-15.05
			c0.29-0.18,0.61-0.33,0.94-0.43c0.09-0.17,0.17-0.34,0.26-0.51c-16.72-2.1-28.38-9.35-35.36-15.29
			c-8.26-7.01-14.41-16.11-15.66-23.19c-3.87-21.93,3.3-41.03,21.33-56.77c5.24-4.57,1.58-18.84-1.64-31.42
			c-2.07-8.07-4.02-15.7-4.18-22.05c-0.51-20.12,6.4-37.52,20.54-51.72c12.12-12.17,27.24-19.51,37.8-23.53
			c17.26-6.57,36.75-10.19,54.87-10.19c17.39,0,30.91,3.28,37.44,9.05c1.06-0.1,2.12-0.15,3.16-0.15c11.13,0,21.66,5.55,30.46,16.04
			c8.63,10.29,15.52,25.3,19.4,42.25c2.19,9.56,0.75,20.3-0.76,31.68c-0.63,4.7-1.27,9.56-1.63,14.25
			c-0.68,9.04,2.81,14.89,7.23,22.3c5.63,9.45,12.02,20.15,10.47,39.54c-1.55,19.45-8.86,24.11-15.31,28.23
			c-4.22,2.7-7.87,5.03-10.25,12.17c-0.22,0.65-0.44,1.53-0.7,2.54c-0.84,3.3-2.03,8-4.86,12.4c3.56,3.46,9.76,10.46,15.12,21.38
			c9.66,19.7,21.31,61.41,3.66,92.76c-12.65,22.47-37.49,35.52-73.82,38.78c-12.91,1.16-25.16,1.74-36.42,1.74l-0.92,0
			c-1.58,0.03-3.2,0.05-4.81,0.05c-5.74,0-11.01-0.22-15.67-0.64c-2.01-0.18-4.21-0.42-6.52-0.71c-17.14-1.68-30.02-4.72-41.39-7.41
			c-11.12-2.62-20.72-4.89-31.24-4.89c-4.28,0-8.51,0.37-12.94,1.12c-0.21,0.04-0.45,0.06-0.68,0.06c-1.16,0-2.27-0.51-3.03-1.4
			c-0.05-0.06-0.1-0.12-0.15-0.19c-3.12,1.75-7.36,3.18-12.94,3.2l-14.21,10.34C158.9,443.69,157.11,444.28,155.25,444.28z
			 M82.19,161.78L82.19,161.78z"/>
		<path class="st1" d="M321.7,60.6c17.16,0,30.95,3.39,36.56,9.16c1.36-0.17,2.7-0.26,4.04-0.26c10.39,0,20.18,5.17,28.55,15.15
			c8.38,10,15.09,24.63,18.88,41.21c2.09,9.11,0.68,19.64-0.8,30.79c-0.63,4.73-1.28,9.63-1.64,14.39
			c-0.74,9.82,3.11,16.29,7.58,23.77c5.44,9.12,11.61,19.47,10.12,38.06c-1.45,18.21-7.91,22.33-14.16,26.32
			c-4.43,2.83-8.62,5.51-11.28,13.48c-0.25,0.75-0.49,1.69-0.77,2.78c-0.93,3.66-2.25,8.82-5.73,13.29
			c2.44,2.16,9.93,9.42,16.18,22.14c9.45,19.26,20.87,59.99,3.73,90.43c-12.22,21.71-36.4,34.33-71.87,37.51
			c-13.62,1.22-25.58,1.73-36.2,1.73c-0.31,0-0.61,0-0.91,0c-1.62,0.03-3.23,0.05-4.82,0.05c-5.44,0-10.68-0.2-15.44-0.63
			c-2.08-0.19-4.23-0.43-6.44-0.7c-17.01-1.67-29.77-4.68-41.12-7.36c-11.36-2.68-21-4.96-31.81-4.96c-4.22,0-8.61,0.35-13.35,1.15
			c-0.09,0.02-0.17,0.02-0.26,0.02c-0.43,0-0.85-0.19-1.13-0.52c-0.34-0.4-0.45-0.95-0.28-1.45c0.21-0.63,0.41-1.25,0.59-1.87
			c-3,2.74-7.89,5.47-15.47,5.47c-0.21,0-0.42-0.01-0.64-0.01l-14.89,10.83c-1.09,0.79-2.37,1.21-3.69,1.21
			c-0.33,0-0.66-0.03-0.99-0.08c-1.66-0.26-3.12-1.16-4.11-2.51l-0.64-0.88c-0.99-1.36-1.39-3.02-1.13-4.68
			c0.26-1.66,1.15-3.12,2.51-4.11l4.62-3.36l-13.56,5.53c-0.78,0.33-1.6,0.5-2.43,0.5c-0.8,0-1.6-0.15-2.37-0.46
			c-1.56-0.63-2.78-1.83-3.43-3.38l-0.42-1c-1.35-3.19,0.15-6.89,3.34-8.25l13.64-5.77l-16.96,4.03c-0.49,0.12-0.98,0.17-1.47,0.17
			c-1.15,0-2.28-0.32-3.29-0.94c-1.43-0.88-2.43-2.27-2.82-3.9l-0.25-1.06c-0.39-1.64-0.12-3.32,0.76-4.75
			c0.88-1.43,2.27-2.43,3.9-2.82l16.87-4.01c-0.25-0.61-0.46-1.21-0.59-1.79l-15.52,3.08c-0.47,0.11-0.95,0.17-1.42,0.17
			c-2.82,0-5.42-1.95-6.1-4.84l-0.25-1.06c-0.8-3.37,1.29-6.77,4.67-7.58l17.45-4.15c0.02-1.09,0.27-2.54,1.03-4.39l-10.13-1.04
			c-3.38-0.35-5.86-3.38-5.51-6.77c0.05-0.46,0.31-0.88,0.7-1.12c0.84-0.52,20.38-12.53,38.73-15.43c0.12-0.18,0.28-0.34,0.47-0.46
			c0.04-0.02,0.47-0.27,1.24-0.66c-44.31-3.85-65.18-16.85-78.45-27.9c-22.1-18.88-33.58-46.05-33.2-78.59
			c0.3-25.83,7.96-54.12,21.63-80.09c0.11-0.31,0.29-0.63,0.46-0.95c0.29-0.52,0.75-1.35,1.45-2.59c0.01-0.03,0.03-0.05,0.05-0.08
			c0,0,0,0,0-0.01c0,0,0,0,0,0c0,0,0,0,0,0c0,0,0,0,0,0l0,0c0,0,0,0,0,0c0,0,0,0,0,0c0,0,0,0,0,0c0,0,0,0,0,0c0,0,0,0,0,0
			c0,0,0,0,0,0c0,0,0,0,0,0c0,0,0,0,0,0c0,0,0,0,0,0c0,0,0,0,0-0.01c0,0,0,0,0,0c0,0,0,0,0,0c0,0,0,0,0-0.01c0,0,0,0,0-0.01
			c0,0,0,0,0,0c0,0,0,0,0,0c0,0,0,0,0,0c0,0,0,0,0,0c0,0,0,0,0-0.01c0,0,0,0,0,0c0,0,0,0,0,0c0,0,0,0,0,0c0,0,0,0,0,0c0,0,0,0,0,0
			c0,0,0,0,0,0c0,0,0,0,0,0c0,0,0,0,0,0c0,0,0,0,0,0c0,0,0,0,0,0c0,0,0,0,0,0c0,0,0,0,0,0c0,0,0,0,0,0c0,0,0,0,0,0c0,0,0,0,0,0
			c0,0,0,0,0,0c0,0,0,0,0,0c0,0,0,0,0,0c0,0,0,0,0,0c0,0,0,0,0,0c0,0,0,0,0,0c0,0,0,0,0,0c0,0,0,0,0,0c0,0,0,0,0,0c0,0,0,0,0,0
			c0,0,0,0,0,0c0,0,0,0,0,0c0,0,0,0,0,0c0,0,0,0,0,0c0,0,0,0,0,0c0,0,0,0,0,0c0,0,0,0,0,0c0,0,0,0,0,0c0,0,0,0,0,0c0,0,0,0,0,0
			c0,0,0.01,0,0,0c0,0,0,0,0,0c0,0,0,0,0,0c0,0,0,0,0,0c0,0,0,0,0,0c0,0,0,0,0,0c0,0,0,0,0,0c0,0,0,0,0,0c0,0,0,0,0,0c0,0,0,0,0,0
			c0,0,0,0,0,0c0,0,0,0,0,0c0,0,0,0,0,0c0,0,0,0,0,0c0,0,0,0,0,0c0,0,0,0,0,0c0,0,0,0,0.01-0.01c0,0,0,0,0.01,0c0,0,0,0,0,0
			c0,0,0,0,0,0c0,0,0,0,0,0c0,0,0,0,0,0c0,0,0,0,0,0h0c0.02-0.01,0.03-0.03,0.05-0.04c0.22-0.17,0.49-0.25,0.76-0.29
			c-0.09-5.12,1.01-13.25,7.65-19.52l2.88-16.63c0.27-1.55,1.13-2.91,2.42-3.82c1.01-0.71,2.18-1.08,3.39-1.08
			c0.34,0,0.68,0.03,1.02,0.09l0.99,0.17c1.55,0.27,2.91,1.13,3.82,2.42c0.91,1.29,1.26,2.85,0.99,4.41l-0.72,4.18l5-11.4
			c0.61-1.43,1.75-2.56,3.21-3.15c0.72-0.29,1.47-0.44,2.22-0.44c0.78,0,1.56,0.16,2.3,0.47l0.92,0.39c3,1.27,4.41,4.74,3.14,7.73
			l-4.73,11.19l7.82-12.27c0.85-1.33,2.16-2.25,3.7-2.59c0.43-0.1,0.86-0.14,1.29-0.14c1.11,0,2.2,0.32,3.16,0.93l0.84,0.54
			c1.33,0.85,2.25,2.16,2.59,3.7c0.34,1.54,0.06,3.12-0.78,4.45l-8.48,13.31c0.47,0.21,0.92,0.44,1.32,0.69l8.2-11.85
			c1.1-1.73,3-2.68,4.95-2.68c1.09,0,2.19,0.3,3.17,0.92l0.84,0.54c2.74,1.75,3.56,5.4,1.81,8.15L141,155.58
			c1.09,1.04,1.71,2.26,2.01,3.42l7.18-5.67c1.03-0.82,2.28-1.25,3.58-1.25c0.23,0,0.46,0.01,0.69,0.04
			c1.54,0.18,2.91,0.95,3.87,2.16c0.37,0.47,0.43,1.12,0.14,1.65l-16.73,30.51c0.37,0.18,0.71,0.4,1.04,0.64
			c0.11-0.02,0.17-0.04,0.17-0.04s0.01,0.08,0.03,0.2c0.24,0.2,0.48,0.42,0.69,0.67c1.45,1.7,1.83,4.1,1.14,7.33
			c-1.8,8.48-5.03,17.09-8.15,25.41c-7.45,19.86-14.48,38.62-4.98,57.61c7.35,14.7,20.05,24.94,36.73,29.62
			c6.87,1.93,14.29,2.86,21.91,2.86c18.34,0,37.86-5.41,53.83-15.44c0.25-0.15,0.52-0.23,0.79-0.23c0.14,0,0.29,0.02,0.43,0.06
			c0.45-0.91,0.9-1.82,1.38-2.71c0.42-0.78,0.85-1.53,1.28-2.29c-32.58-2.43-50.57-25.52-52.56-36.8
			c-3.71-21.01,3.19-39.33,20.51-54.45c6.4-5.58,2.71-19.99-0.87-33.93c-2.03-7.93-3.95-15.42-4.11-21.49
			c-1.13-44.17,35.06-64.6,56.73-72.85C286.03,63.66,305.39,60.6,321.7,60.6 M321.15,257.19l-0.35-0.32v0.3
			C320.91,257.17,321.03,257.18,321.15,257.19 M321.7,55.6l0,5L321.7,55.6c-18.42,0-38.22,3.68-55.76,10.35
			c-10.78,4.1-26.24,11.62-38.68,24.1c-14.65,14.7-21.8,32.72-21.27,53.55c0.17,6.63,2.16,14.39,4.26,22.6
			c2.74,10.7,6.5,25.36,2.42,28.92c-18.73,16.35-26.19,36.23-22.15,59.08c1.37,7.73,7.69,17.18,16.5,24.66
			c6.3,5.35,16.26,11.73,30.13,14.74c-14.06,7.75-30.85,12.13-46.85,12.13c-7.31,0-14.23-0.9-20.56-2.67
			c-15.28-4.28-26.91-13.63-33.61-27.04c-8.52-17.04-2.17-33.99,5.19-53.62c3.18-8.49,6.48-17.27,8.35-26.13
			c0.94-4.41,0.37-8.08-1.67-10.91l14.83-27.04c1.26-2.29,1.02-5.1-0.6-7.15c-1.79-2.26-4.35-3.69-7.21-4.03
			c-0.42-0.05-0.85-0.07-1.27-0.07c-0.5,0-1,0.04-1.5,0.11l1.7-2.67c1.56-2.45,2.08-5.37,1.45-8.22c-0.63-2.84-2.33-5.27-4.78-6.83
			l-0.84-0.54c-1.75-1.12-3.78-1.71-5.86-1.71c-0.11,0-0.21,0-0.32,0c-0.63-2.84-2.33-5.27-4.79-6.83l-0.84-0.54
			c-1.76-1.12-3.78-1.71-5.85-1.71c-0.79,0-1.59,0.09-2.37,0.26c-0.63,0.14-1.25,0.33-1.84,0.58c-1.15-1.88-2.87-3.44-5.05-4.36
			l-0.92-0.39c-1.35-0.57-2.78-0.86-4.24-0.86c-1.41,0-2.78,0.27-4.1,0.8c-2.36,0.96-4.27,2.66-5.46,4.86
			c-1.22-0.8-2.61-1.35-4.09-1.6l-0.99-0.17c-0.62-0.11-1.25-0.16-1.87-0.16c-2.25,0-4.42,0.69-6.27,1.99
			c-2.38,1.68-3.96,4.18-4.46,7.05l-2.61,15.08c-4.77,5.09-7.53,11.85-7.94,19.38c-0.01,0.02-0.02,0.03-0.04,0.05c0,0,0,0-0.01,0.01
			c-0.01,0.01-0.02,0.02-0.03,0.04c-0.03,0.04-0.06,0.09-0.1,0.13c-0.02,0.03-0.04,0.06-0.06,0.09c-0.02,0.03-0.04,0.05-0.05,0.08
			c-0.01,0.02-0.02,0.03-0.03,0.05c-0.01,0.01-0.01,0.02-0.02,0.03c-0.01,0.01-0.01,0.02-0.02,0.03c-0.07,0.11-0.14,0.23-0.21,0.35
			c-0.7,1.25-1.17,2.08-1.46,2.61c-0.18,0.33-0.42,0.76-0.63,1.27c-13.94,26.55-21.78,55.71-22.09,82.12
			c-0.4,34.06,11.69,62.57,34.96,82.45c0.02,0.01,0.03,0.03,0.05,0.04c11.3,9.42,27.97,20.32,59.13,26.1
			c-11.3,4.57-20.01,9.92-20.57,10.26c-1.7,1.06-2.84,2.87-3.04,4.86c-0.47,4.55,1.89,8.76,5.64,10.88l-4.67,1.11
			c-6.06,1.44-9.81,7.54-8.37,13.6l0.25,1.06c0.58,2.44,1.91,4.53,3.72,6.05c-0.09,0.13-0.17,0.26-0.25,0.39
			c-1.58,2.57-2.07,5.6-1.37,8.53l0.25,1.06c0.7,2.93,2.49,5.42,5.06,7c0.72,0.44,1.47,0.8,2.26,1.07
			c-0.65,2.36-0.54,4.95,0.49,7.38l0.43,1c1.18,2.78,3.36,4.93,6.16,6.06c1.36,0.55,2.79,0.83,4.25,0.83c1.35,0,2.67-0.24,3.93-0.71
			c0.28,1.71,0.96,3.34,2.01,4.78l0.64,0.88c1.77,2.44,4.39,4.04,7.37,4.51c0.58,0.09,1.18,0.14,1.77,0.14
			c2.39,0,4.69-0.75,6.63-2.16l13.57-9.87c4.79-0.13,8.66-1.23,11.73-2.68c1.05,0.69,2.29,1.07,3.57,1.07c0.38,0,0.76-0.03,1.13-0.1
			c4.25-0.72,8.35-1.07,12.48-1.07c10.23,0,19.7,2.24,30.66,4.83c11.43,2.7,24.38,5.76,41.72,7.46c2.33,0.29,4.52,0.53,6.54,0.71
			c4.73,0.43,10.08,0.65,15.89,0.65c1.58,0,3.21-0.02,4.85-0.05l0.32,0l0.56,0c11.33,0,23.66-0.59,36.64-1.75
			c37.2-3.33,62.7-16.81,75.78-40.04c18.16-32.26,6.28-74.95-3.6-95.09c-4.87-9.92-10.44-16.73-14.22-20.67
			c2.31-4.17,3.37-8.34,4.13-11.34l0.02-0.06c0.25-0.97,0.46-1.8,0.65-2.36c2.1-6.3,5.09-8.21,9.23-10.85
			c6.59-4.21,14.8-9.46,16.45-30.14c1.61-20.18-5.28-31.74-10.81-41.02c-4.36-7.31-7.51-12.59-6.89-20.84
			c0.35-4.62,0.99-9.44,1.61-14.1c1.55-11.61,3.01-22.58,0.72-32.57c-3.97-17.33-11.04-32.71-19.93-43.3
			c-9.29-11.08-20.49-16.93-32.38-16.93c-0.78,0-1.56,0.03-2.35,0.08C352.69,58.85,338.98,55.6,321.7,55.6L321.7,55.6z"/>
	</g>
</g>
<g id="Layer_10_copy_4">
	<g>
		<path class="st2" d="M104.83,437.5c-0.11,0-0.22-0.04-0.31-0.11l-1.82-1.46c-0.25-0.2-0.51-0.4-0.75-0.61
			c-44.62-36.84-74.17-88.45-83.19-145.3l-0.11-0.65c-0.05-0.3-0.1-0.61-0.15-0.92c-0.05-0.3-0.09-0.59-0.13-0.89l-0.09-0.67
			c-0.02-0.16,0.03-0.32,0.15-0.43c0.09-0.09,0.22-0.14,0.35-0.14c0.03,0,0.06,0,0.08,0.01l117.36,20.3
			c0.55,0.09,1.03,0.42,1.34,0.88c0.3,0.47,0.4,1.04,0.26,1.58l-32.51,128.05c-0.04,0.17-0.17,0.3-0.33,0.35
			C104.94,437.49,104.89,437.5,104.83,437.5z"/>
		<path class="st2" d="M18.78,286.8l117.36,20.3c0.41,0.07,0.78,0.31,1,0.66c0.23,0.35,0.3,0.78,0.2,1.19L104.83,437
			c-0.43-0.34-0.86-0.69-1.29-1.04c-0.43-0.35-0.86-0.69-1.28-1.04c-43.41-35.84-73.79-86.9-83.01-145
			c-0.08-0.52-0.17-1.04-0.25-1.57C18.92,287.85,18.86,287.32,18.78,286.8 M18.78,285.8c-0.26,0-0.51,0.1-0.7,0.28
			c-0.23,0.22-0.34,0.54-0.29,0.86c0.03,0.22,0.06,0.44,0.09,0.67c0.04,0.3,0.08,0.6,0.13,0.9c0.05,0.31,0.1,0.62,0.15,0.94
			l0.1,0.64c9.04,56.98,38.64,108.69,83.36,145.61c0.25,0.2,0.5,0.4,0.75,0.6c0.18,0.15,0.36,0.29,0.54,0.44
			c0.36,0.29,0.72,0.58,1.08,0.87l0.21,0.17c0.18,0.14,0.4,0.22,0.63,0.22c0.11,0,0.21-0.02,0.32-0.05c0.32-0.11,0.57-0.37,0.65-0.7
			l32.51-128.05c0.17-0.67,0.05-1.39-0.33-1.98c-0.38-0.58-0.99-0.98-1.67-1.1l-117.36-20.3C18.89,285.81,18.84,285.8,18.78,285.8
			L18.78,285.8z"/>
	</g>
</g>
<g id="Layer_24_copy">
	<g>
		<path class="st2" d="M155.25,442.28c-0.36,0-0.72-0.03-1.07-0.08c-1.79-0.28-3.37-1.25-4.43-2.71l-0.64-0.88
			c-1.07-1.47-1.5-3.26-1.22-5.05s1.25-3.37,2.71-4.43l1.29-0.94l-9.74,3.97c-0.83,0.35-1.71,0.53-2.62,0.53
			c-0.88,0-1.74-0.17-2.56-0.5c-1.68-0.68-3-1.98-3.7-3.65l-0.42-1c-1.46-3.45,0.16-7.44,3.61-8.9l8.14-3.45l-11.15,2.65
			c-0.52,0.12-1.05,0.19-1.58,0.19c-1.25,0-2.47-0.35-3.55-1.01c-1.54-0.95-2.63-2.45-3.05-4.21l-0.25-1.06
			c-0.42-1.77-0.13-3.59,0.82-5.13c0.95-1.54,2.45-2.63,4.21-3.04l16.31-3.88c-0.11-0.29-0.2-0.58-0.28-0.85l-15.05,2.98
			c-0.48,0.12-1,0.18-1.51,0.18c-3.1,0-5.87-2.2-6.59-5.23l-0.25-1.06c-0.87-3.64,1.39-7.31,5.04-8.18l17.08-4.06
			c0.07-1.1,0.34-2.29,0.81-3.56l-9.47-0.97c-3.66-0.37-6.33-3.66-5.96-7.32c0.06-0.61,0.41-1.17,0.94-1.5
			c0.82-0.51,20.34-12.5,38.72-15.47c0.1-0.12,0.2-0.22,0.32-0.31c-43.5-4.05-64.04-17-77.09-27.87
			c-22.22-18.98-33.76-46.29-33.38-78.98c0.3-25.79,8-54.32,21.69-80.31c0.1-0.29,0.29-0.63,0.47-0.96c0.29-0.52,0.75-1.35,1.45-2.6
			c0-0.01,0.09-0.14,0.09-0.15c0.01-0.03,0.04-0.07,0.08-0.11c0-0.01,0.1-0.12,0.11-0.13c0.02-0.03,0.03-0.04,0.06-0.06
			c0,0,0.08-0.08,0.09-0.09c0.01-0.01,0.09-0.06,0.09-0.07c0.16-0.13,0.35-0.23,0.57-0.29c-0.03-5.56,1.32-13.27,7.69-19.37
			l2.85-16.47c0.29-1.68,1.22-3.15,2.62-4.14c1.09-0.77,2.36-1.17,3.68-1.17c0.37,0,0.74,0.03,1.1,0.09l0.99,0.17
			c1.69,0.29,3.16,1.22,4.14,2.62c0.98,1.4,1.37,3.09,1.07,4.78l-0.02,0.12l3.34-7.63c0.66-1.56,1.9-2.77,3.48-3.42
			c0.77-0.31,1.58-0.47,2.41-0.47c0.86,0,1.69,0.17,2.49,0.51l0.92,0.39c3.25,1.38,4.78,5.14,3.4,8.39l-2.41,5.69l4.61-7.24
			c0.92-1.44,2.34-2.44,4.01-2.81c0.46-0.1,0.93-0.15,1.4-0.15c1.21,0,2.4,0.35,3.43,1l0.84,0.54c1.44,0.92,2.44,2.34,2.81,4.01
			c0.37,1.67,0.07,3.38-0.85,4.83l-8.17,12.83c0.16,0.08,0.31,0.16,0.45,0.23l7.93-11.47c1.15-1.81,3.16-2.9,5.36-2.9
			c1.22,0,2.41,0.35,3.44,1l0.84,0.54c1.44,0.92,2.44,2.34,2.81,4.01c0.37,1.67,0.07,3.38-0.85,4.82l-8.54,13.41
			c0.72,0.76,1.27,1.66,1.64,2.64l6.61-5.22c1.12-0.89,2.47-1.35,3.89-1.35c0.25,0,0.5,0.01,0.75,0.04c1.67,0.2,3.16,1.03,4.2,2.35
			c0.5,0.63,0.57,1.5,0.18,2.2l-16.49,30.07c0.16,0.1,0.32,0.2,0.48,0.31c0.02,0,0.04,0,0.06,0c0.1,0,0.2,0.03,0.29,0.09
			c0.11,0.08,0.19,0.2,0.21,0.34l0,0.01c0.24,0.21,0.43,0.4,0.6,0.6c1.56,1.83,1.97,4.36,1.25,7.76
			c-1.81,8.52-5.04,17.14-8.17,25.48c-7.41,19.75-14.4,38.41-5,57.21c7.29,14.57,19.88,24.73,36.42,29.36
			c6.73,1.89,14.05,2.84,21.77,2.84c18.5,0,38.02-5.6,53.56-15.36c0.32-0.2,0.68-0.3,1.05-0.3c0.05,0,0.1,0,0.15,0
			c0.4-0.8,0.8-1.6,1.22-2.39c0.29-0.55,0.59-1.08,0.89-1.62c-32.36-2.76-50.24-25.85-52.23-37.15
			c-3.74-21.2,3.21-39.67,20.68-54.91c6.17-5.38,2.51-19.64-1.02-33.43c-2.04-7.96-3.97-15.48-4.12-21.6
			c-1.13-44.48,35.26-65.03,57.06-73.33c17.04-6.49,36.27-10.06,54.16-10.06c17.27,0,30.97,3.41,36.75,9.13
			c1.29-0.15,2.58-0.23,3.86-0.23c10.52,0,20.52,5.3,28.93,15.32c8.43,10.06,15.18,24.76,18.99,41.42c2.11,9.2,0.7,19.78-0.79,30.97
			c-0.63,4.73-1.28,9.61-1.64,14.36c-0.73,9.67,3.09,16.07,7.51,23.48c5.48,9.19,11.69,19.61,10.19,38.36
			c-1.47,18.46-8.04,22.65-14.39,26.71c-4.36,2.78-8.47,5.41-11.07,13.22c-0.24,0.72-0.47,1.63-0.74,2.68
			c-0.95,3.72-2.21,8.7-5.55,13.17c2.59,2.36,9.9,9.67,15.95,21.99c9.49,19.35,20.95,60.27,3.71,90.9
			c-12.31,21.87-36.62,34.57-72.26,37.77c-12.85,1.15-25.04,1.74-36.24,1.74l-0.91,0c-1.61,0.03-3.22,0.05-4.81,0.05
			c-5.68,0-10.89-0.21-15.49-0.63c-1.99-0.18-4.16-0.42-6.46-0.71c-17.06-1.67-29.87-4.7-41.17-7.37
			c-11.24-2.65-20.94-4.95-31.7-4.95c-4.39,0-8.73,0.37-13.27,1.14c-0.11,0.02-0.23,0.03-0.34,0.03c-0.58,0-1.13-0.25-1.51-0.7
			c-0.45-0.53-0.6-1.27-0.38-1.93c0.03-0.08,0.05-0.16,0.08-0.24c-2.95,2.25-7.62,4.49-14.48,4.49c-0.14,0-0.48-0.01-0.48-0.01
			l-14.75,10.73C158.06,441.83,156.69,442.28,155.25,442.28z"/>
		<path class="st2" d="M321.7,60.6c17.16,0,30.95,3.39,36.56,9.16c1.36-0.17,2.7-0.26,4.04-0.26c10.39,0,20.18,5.17,28.55,15.15
			c8.38,10,15.09,24.63,18.88,41.21c2.09,9.11,0.68,19.64-0.8,30.79c-0.63,4.73-1.28,9.63-1.64,14.39
			c-0.74,9.82,3.11,16.29,7.58,23.77c5.44,9.12,11.61,19.47,10.12,38.06c-1.45,18.21-7.91,22.33-14.16,26.32
			c-4.43,2.83-8.62,5.51-11.28,13.48c-0.25,0.75-0.49,1.69-0.77,2.78c-0.93,3.66-2.25,8.82-5.73,13.29
			c2.44,2.16,9.93,9.42,16.18,22.14c9.45,19.26,20.87,59.99,3.73,90.43c-12.22,21.71-36.4,34.33-71.87,37.51
			c-13.62,1.22-25.58,1.73-36.2,1.73c-0.31,0-0.61,0-0.91,0c-1.62,0.03-3.23,0.05-4.82,0.05c-5.44,0-10.68-0.2-15.44-0.63
			c-2.08-0.19-4.23-0.43-6.44-0.7c-17.01-1.67-29.77-4.68-41.12-7.36c-11.36-2.68-21-4.96-31.81-4.96c-4.22,0-8.61,0.35-13.35,1.15
			c-0.09,0.02-0.17,0.02-0.26,0.02c-0.43,0-0.85-0.19-1.13-0.52c-0.34-0.4-0.45-0.95-0.28-1.45c0.21-0.63,0.41-1.25,0.59-1.87
			c-3,2.74-7.89,5.47-15.47,5.47c-0.21,0-0.42-0.01-0.64-0.01l-14.89,10.83c-1.09,0.79-2.37,1.21-3.69,1.21
			c-0.33,0-0.66-0.03-0.99-0.08c-1.66-0.26-3.12-1.16-4.11-2.51l-0.64-0.88c-0.99-1.36-1.39-3.02-1.13-4.68
			c0.26-1.66,1.15-3.12,2.51-4.11l4.62-3.36l-13.56,5.53c-0.78,0.33-1.6,0.5-2.43,0.5c-0.8,0-1.6-0.15-2.37-0.46
			c-1.56-0.63-2.78-1.83-3.43-3.38l-0.42-1c-1.35-3.19,0.15-6.89,3.34-8.25l13.64-5.77l-16.96,4.03c-0.49,0.12-0.98,0.17-1.47,0.17
			c-1.15,0-2.28-0.32-3.29-0.94c-1.43-0.88-2.43-2.27-2.82-3.9l-0.25-1.06c-0.39-1.64-0.12-3.32,0.76-4.75s2.27-2.43,3.9-2.82
			l16.87-4.01c-0.25-0.61-0.46-1.21-0.59-1.79l-15.52,3.08c-0.47,0.11-0.95,0.17-1.42,0.17c-2.82,0-5.42-1.95-6.1-4.84l-0.25-1.06
			c-0.8-3.37,1.29-6.77,4.67-7.58l17.45-4.15c0.02-1.09,0.27-2.54,1.03-4.39l-10.13-1.04c-3.38-0.35-5.86-3.38-5.51-6.77
			c0.05-0.46,0.31-0.88,0.7-1.12c0.84-0.52,20.38-12.53,38.73-15.43c0.12-0.18,0.28-0.34,0.47-0.46c0.04-0.02,0.47-0.27,1.24-0.66
			c-44.31-3.85-65.18-16.85-78.45-27.9c-22.1-18.88-33.58-46.05-33.2-78.59c0.3-25.83,7.96-54.12,21.63-80.09
			c0.11-0.31,0.29-0.63,0.46-0.95c0.29-0.52,0.75-1.35,1.45-2.59c0.01-0.03,0.03-0.05,0.05-0.08c0,0,0,0,0-0.01c0,0,0,0,0,0
			c0,0,0,0,0,0c0,0,0,0,0,0l0,0c0,0,0,0,0,0c0,0,0,0,0,0c0,0,0,0,0,0c0,0,0,0,0,0c0,0,0,0,0,0c0,0,0,0,0,0c0,0,0,0,0,0c0,0,0,0,0,0
			c0,0,0,0,0,0c0,0,0,0,0-0.01c0,0,0,0,0,0c0,0,0,0,0,0c0,0,0,0,0-0.01c0,0,0,0,0-0.01c0,0,0,0,0,0c0,0,0,0,0,0c0,0,0,0,0,0
			c0,0,0,0,0,0c0,0,0,0,0-0.01c0,0,0,0,0,0c0,0,0,0,0,0c0,0,0,0,0,0c0,0,0,0,0,0c0,0,0,0,0,0c0,0,0,0,0,0c0,0,0,0,0,0c0,0,0,0,0,0
			c0,0,0,0,0,0c0,0,0,0,0,0c0,0,0,0,0,0c0,0,0,0,0,0c0,0,0,0,0,0c0,0,0,0,0,0c0,0,0,0,0,0c0,0,0,0,0,0c0,0,0,0,0,0c0,0,0,0,0,0
			c0,0,0,0,0,0c0,0,0,0,0,0c0,0,0,0,0,0c0,0,0,0,0,0c0,0,0,0,0,0c0,0,0,0,0,0c0,0,0,0,0,0c0,0,0,0,0,0c0,0,0,0,0,0c0,0,0,0,0,0
			c0,0,0,0,0,0c0,0,0,0,0,0c0,0,0,0,0,0c0,0,0,0,0,0c0,0,0,0,0,0c0,0,0,0,0,0c0,0,0,0,0,0c0,0,0.01,0,0,0c0,0,0,0,0,0c0,0,0,0,0,0
			c0,0,0,0,0,0c0,0,0,0,0,0c0,0,0,0,0,0c0,0,0,0,0,0c0,0,0,0,0,0c0,0,0,0,0,0c0,0,0,0,0,0c0,0,0,0,0,0c0,0,0,0,0,0c0,0,0,0,0,0
			c0,0,0,0,0,0c0,0,0,0,0,0c0,0,0,0,0,0c0,0,0,0,0.01-0.01c0,0,0,0,0.01,0c0,0,0,0,0,0c0,0,0,0,0,0c0,0,0,0,0,0c0,0,0,0,0,0
			c0,0,0,0,0,0h0c0.02-0.01,0.03-0.03,0.05-0.04c0.22-0.17,0.49-0.25,0.76-0.29c-0.09-5.12,1.01-13.25,7.65-19.52l2.88-16.63
			c0.27-1.55,1.13-2.91,2.42-3.82c1.01-0.71,2.18-1.08,3.39-1.08c0.34,0,0.68,0.03,1.02,0.09l0.99,0.17
			c1.55,0.27,2.91,1.13,3.82,2.42c0.91,1.29,1.26,2.85,0.99,4.41l-0.72,4.18l5-11.4c0.61-1.43,1.75-2.56,3.21-3.15
			c0.72-0.29,1.47-0.44,2.22-0.44c0.78,0,1.56,0.16,2.3,0.47l0.92,0.39c3,1.27,4.41,4.74,3.14,7.73l-4.73,11.19l7.82-12.27
			c0.85-1.33,2.16-2.25,3.7-2.59c0.43-0.1,0.86-0.14,1.29-0.14c1.11,0,2.2,0.32,3.16,0.93l0.84,0.54c1.33,0.85,2.25,2.16,2.59,3.7
			c0.34,1.54,0.06,3.12-0.78,4.45l-8.48,13.31c0.47,0.21,0.92,0.44,1.32,0.69l8.2-11.85c1.1-1.73,3-2.68,4.95-2.68
			c1.09,0,2.19,0.3,3.17,0.92l0.84,0.54c2.74,1.75,3.56,5.4,1.81,8.15L141,155.58c1.09,1.04,1.71,2.26,2.01,3.42l7.18-5.67
			c1.03-0.82,2.28-1.25,3.58-1.25c0.23,0,0.46,0.01,0.69,0.04c1.54,0.18,2.91,0.95,3.87,2.16c0.37,0.47,0.43,1.12,0.14,1.65
			l-16.73,30.51c0.37,0.18,0.71,0.4,1.04,0.64c0.11-0.02,0.17-0.04,0.17-0.04s0.01,0.08,0.03,0.2c0.24,0.2,0.48,0.42,0.69,0.67
			c1.45,1.7,1.83,4.1,1.14,7.33c-1.8,8.48-5.03,17.09-8.15,25.41c-7.45,19.86-14.48,38.62-4.98,57.61
			c7.35,14.7,20.05,24.94,36.73,29.62c6.87,1.93,14.29,2.86,21.91,2.86c18.34,0,37.86-5.41,53.83-15.44
			c0.25-0.15,0.52-0.23,0.79-0.23c0.14,0,0.29,0.02,0.43,0.06c0.45-0.91,0.9-1.82,1.38-2.71c0.42-0.78,0.85-1.53,1.28-2.29
			c-32.58-2.43-50.57-25.52-52.56-36.8c-3.71-21.01,3.19-39.33,20.51-54.45c6.4-5.58,2.71-19.99-0.87-33.93
			c-2.03-7.93-3.95-15.42-4.11-21.49c-1.13-44.17,35.06-64.6,56.73-72.85C286.03,63.66,305.39,60.6,321.7,60.6 M321.15,257.19
			l-0.35-0.32v0.3C320.91,257.17,321.03,257.18,321.15,257.19 M321.7,59.6l0,1L321.7,59.6c-17.94,0-37.24,3.58-54.34,10.09
			c-21.92,8.34-58.52,29.02-57.38,73.81c0.16,6.18,2.09,13.72,4.14,21.71c3.5,13.64,7.11,27.75,1.18,32.93
			c-17.61,15.36-24.62,33.99-20.84,55.37c0.91,5.13,5.42,14.04,15.15,22.31c7.13,6.05,19.23,13.5,36.76,15.18
			c-0.18,0.31-0.35,0.63-0.52,0.95c-0.38,0.71-0.74,1.43-1.09,2.13c-0.41,0.03-0.8,0.15-1.15,0.37
			c-15.47,9.71-34.9,15.29-53.3,15.29c-7.67,0-14.96-0.95-21.64-2.82c-16.4-4.6-28.89-14.66-36.11-29.1
			c-9.3-18.6-2.34-37.16,5.02-56.81c3.13-8.35,6.37-16.99,8.19-25.55c0.76-3.56,0.31-6.24-1.36-8.19c-0.16-0.18-0.33-0.36-0.53-0.54
			c-0.07-0.2-0.2-0.37-0.38-0.49c-0.13-0.09-0.27-0.14-0.43-0.17l16.26-29.64c0.48-0.88,0.39-1.96-0.23-2.75
			c-1.12-1.42-2.74-2.32-4.54-2.54c-0.27-0.03-0.54-0.05-0.8-0.05c-1.54,0-2.99,0.51-4.2,1.46l-6.09,4.81
			c-0.32-0.69-0.73-1.32-1.22-1.89l8.34-13.09c0.99-1.55,1.31-3.4,0.91-5.2c-0.4-1.8-1.47-3.34-3.03-4.33l-0.84-0.54
			c-1.11-0.71-2.39-1.08-3.71-1.08c-2.37,0-4.54,1.18-5.79,3.15l-0.44,0.64l1.09-1.71c0.99-1.55,1.32-3.4,0.92-5.2
			c-0.4-1.8-1.48-3.34-3.03-4.33l-0.84-0.54c-1.11-0.71-2.39-1.08-3.7-1.08c-0.5,0-1.01,0.06-1.51,0.17
			c-1.8,0.4-3.34,1.48-4.33,3.03l-1.4,2.2l0.08-0.19c1.48-3.5-0.16-7.56-3.67-9.04l-0.92-0.39c-0.86-0.36-1.76-0.55-2.69-0.55
			c-0.89,0-1.76,0.17-2.59,0.51c-1.71,0.69-3.04,2-3.75,3.69l-2.37,5.4c-0.17-0.99-0.56-1.93-1.16-2.77
			c-1.06-1.51-2.65-2.51-4.46-2.83l-0.99-0.17c-0.39-0.07-0.79-0.1-1.19-0.1c-1.42,0-2.79,0.44-3.96,1.26
			c-1.51,1.06-2.51,2.65-2.83,4.46l-2.83,16.31c-6.27,6.07-7.7,13.68-7.72,19.28c-0.13,0.07-0.26,0.15-0.37,0.24
			c-0.03,0.02-0.05,0.04-0.07,0.06c0,0,0,0,0,0c0,0-0.01,0.01-0.01,0.01c-0.01,0.01-0.02,0.02-0.03,0.02
			c-0.02,0.02-0.04,0.03-0.05,0.05c0,0,0,0,0,0c0,0-0.01,0.01-0.01,0.01c-0.01,0.01-0.02,0.02-0.03,0.03
			c-0.01,0-0.01,0.01-0.02,0.02c-0.01,0.01-0.02,0.02-0.02,0.02c0,0-0.01,0.01-0.01,0.01c-0.01,0.01-0.02,0.02-0.02,0.03
			c0,0-0.01,0.01-0.01,0.01c0,0-0.01,0.01-0.01,0.01c-0.01,0.01-0.02,0.02-0.03,0.03c-0.01,0.01-0.02,0.02-0.03,0.03
			c0,0-0.01,0.01-0.01,0.01c0,0.01-0.01,0.01-0.01,0.02c0,0,0,0-0.01,0.01l0,0c0,0,0,0,0,0c-0.01,0.01-0.02,0.03-0.03,0.04
			c0,0,0,0,0,0.01c0,0-0.01,0.01-0.01,0.02c0,0,0,0,0,0c0,0,0,0.01-0.01,0.01c-0.01,0.01-0.02,0.02-0.02,0.03
			c0,0.01-0.01,0.01-0.01,0.02c0,0,0,0,0,0.01c-0.01,0.01-0.01,0.01-0.01,0.02c-0.01,0.01-0.01,0.02-0.02,0.03
			c0,0.01-0.01,0.01-0.01,0.02c-0.01,0.01-0.01,0.02-0.02,0.03c-0.03,0.05-0.06,0.09-0.08,0.14c-0.69,1.23-1.16,2.07-1.44,2.59
			c-0.18,0.33-0.37,0.66-0.5,1.02c-13.71,26.05-21.42,54.63-21.72,80.48c-0.38,32.84,11.22,60.28,33.55,79.36
			c12.84,10.7,32.88,23.39,74.7,27.73c-17.76,3.56-35.78,14.63-36.58,15.12c-0.65,0.41-1.09,1.11-1.17,1.87
			c-0.4,3.93,2.47,7.46,6.4,7.86l8.84,0.9c-0.31,0.95-0.51,1.86-0.6,2.72l-16.73,3.98c-3.91,0.93-6.34,4.87-5.41,8.78l0.25,1.06
			c0.77,3.25,3.75,5.61,7.08,5.61c0.55,0,1.11-0.07,1.65-0.19l12.31-2.44l-13.53,3.22c-1.89,0.45-3.5,1.61-4.52,3.27
			c-1.02,1.66-1.34,3.62-0.89,5.51l0.25,1.06c0.45,1.89,1.61,3.5,3.27,4.52c1.15,0.71,2.47,1.09,3.81,1.09c0.57,0,1.14-0.07,1.7-0.2
			l5.34-1.27l-2.64,1.12c-1.79,0.76-3.18,2.17-3.91,3.98c-0.73,1.81-0.72,3.79,0.04,5.58l0.42,1c0.76,1.79,2.17,3.18,3.98,3.91
			c0.88,0.36,1.8,0.54,2.74,0.54c0.97,0,1.92-0.19,2.82-0.57l6.7-2.73c-0.86,1.01-1.43,2.24-1.65,3.59
			c-0.3,1.92,0.16,3.85,1.31,5.43l0.64,0.88c1.15,1.58,2.84,2.61,4.76,2.91c0.38,0.06,0.76,0.09,1.15,0.09
			c1.54,0,3.02-0.48,4.28-1.4l14.61-10.63c0.11,0,0.21,0,0.32,0c6.28,0,10.77-1.85,13.81-3.9c0.05,0.51,0.25,1.01,0.59,1.4
			c0.48,0.55,1.17,0.87,1.89,0.87c0.14,0,0.29-0.01,0.43-0.04c4.5-0.76,8.82-1.14,13.18-1.14c10.69,0,20.37,2.29,31.58,4.93
			c11.32,2.67,24.15,5.71,41.25,7.38c2.28,0.28,4.46,0.52,6.45,0.7c4.61,0.42,9.84,0.64,15.53,0.64c1.57,0,3.2-0.02,4.84-0.05
			l0.36,0l0.53,0c11.21,0,23.42-0.58,36.28-1.74c35.81-3.21,60.25-16,72.65-38.02c17.34-30.81,5.83-71.92-3.7-91.36
			c-5.76-11.74-12.5-18.85-15.73-21.83c3.2-4.47,4.49-9.52,5.35-12.92l0.02-0.06c0.27-1.04,0.5-1.94,0.73-2.64
			c2.55-7.64,6.4-10.11,10.87-12.96c6.45-4.12,13.13-8.38,14.62-27.09c1.51-18.91-4.74-29.4-10.26-38.65
			c-4.38-7.34-8.16-13.68-7.44-23.19c0.36-4.74,1.01-9.61,1.64-14.33c1.5-11.24,2.91-21.86,0.79-31.15
			c-3.83-16.73-10.61-31.51-19.09-41.63c-8.51-10.14-18.64-15.5-29.31-15.5c-1.21,0-2.45,0.07-3.68,0.21
			C352.66,63,338.93,59.6,321.7,59.6L321.7,59.6z"/>
	</g>
</g>
<g id="Layer_16">
	<polygon class="st3" points="341.44,231.13 308.2,245.46 335.65,270.32 362.66,267.96 362.66,238.94 	"/>
</g>
<g id="Layer_3">
</g>
<g id="Layer_10_copy_2">
	<g>
		<defs>
			<circle id="SVGID_1_" cx="252.62" cy="252.62" r="236.31"/>
		</defs>
		<clipPath id="SVGID_2_">
			<use xlink:href="#SVGID_1_"  style="overflow:visible;"/>
		</clipPath>
		<g class="st4">
			<polygon class="st5" points="103.82,437.89 178.25,413.79 52.93,375.38 -59.27,399.82 			"/>
			<polygon class="st6" points="103.82,437.89 178.25,413.79 52.93,375.38 -59.27,399.82 			"/>
		</g>
	</g>
</g>
<g id="Layer_8">
	<path class="st1" d="M85.47,165.54c0,0,0.46-10.76,2.97-13.54c2.51-2.78,5.45-7.64,5.45-7.64s3.24-18.18,3.52-18.61
		c0.29-0.43,6.05-3.38,8.18-0.36c2.13,3.01,0,13.46,0,13.46l8.42-16.98c0,0,5.41-2.59,7.78-0.26c2.37,2.33-0.79,9.51-0.79,9.51
		l-3.32,9.11l1.87,0.35l9.45-14.64c0,0,4.05-1.91,6.69,0.19c2.65,2.11,0.34,6.83,0.34,6.83l-7.81,13.64l3.17,2.05l8.89-13.53
		c0,0,3.59-1.92,6.94,0.5s1.26,5.4,1.26,5.4l-9.33,14.65l2.6,5.3l10.01-6.89c0,0,4.38-0.05,5.04,0.75
		c0.66,0.79-16.64,31.33-16.64,31.33s-13.93,1.65-26.88-2.01C100.35,180.5,87.27,173.35,85.47,165.54z"/>
	<path class="st1" d="M171.94,356.44c0,0-17.05,2.91-21.65,5.47s-18.16,10.21-18.16,10.21s0.28,3.6,2.34,4.23
		c2.06,0.62,14.82,2.34,14.82,2.34l-3.08,6c0,0-20.86,6.13-21.26,7.39c-0.4,1.25,0.82,8.34,4.13,7.89
		c3.31-0.45,18.12-3.39,18.12-3.39l1.21,4.56c0,0-21.11,3.54-21.58,8.17c-0.47,4.63,0.79,6.93,6.15,6.59
		c5.37-0.34,18.15-4.64,18.15-4.64l1.15,2.85c0,0-17.68,6.13-17.87,9.82c-0.19,3.7,3.26,7.51,5.58,6.76
		c2.31-0.75,20.77-6.73,20.77-6.73l-10.95,9.99c0,0,2.19,7.05,5.48,6.05c3.28-1,17.02-10.99,17.02-10.99s3.64-0.81,9.23-2.19
		c5.59-1.38,11.14-6.95,11.14-6.95s2.64-18.25,1.74-24.65C193.52,388.81,184.79,364.82,171.94,356.44z"/>
</g>
<g id="Layer_6">
	<path class="st7" d="M85.02,164.61c0,0,3.46,11.07,24.06,18.29c20.6,7.22,33.87,4.15,33.87,4.15s1.5,9.61-2.65,18.49
		c-4.15,8.88-10.74,27.51-10.74,27.51s-7.55,30.09-1.98,41.26c5.57,11.17,13.03,24.83,35.96,32.66s52.67,1.75,52.67,1.75
		l29.52-11.52l-11.05,35.79l-4.41,15.84c0,0-22.49,6.06-35.65,5.13s-52.87-4.08-61.26-7.71c-8.39-3.62-36.04-11.64-54.06-38.18
		S62.02,252.4,62.02,252.4s-0.42-24.86,5.82-44.21S85.02,164.61,85.02,164.61z"/>
	<path class="st7" d="M385.65,426.87c4.64-3.04,8.77-6.9,12.71-10.78c7.07-6.94,13.33-14.71,17.42-23.79
		c10.57-23.44,3.82-48.89-3.14-72.28c-0.05-0.16-0.08-0.32-0.12-0.48c-13.53-27.22-38.66-50.25-73.61-58.22
		c-0.27,1.77-1.24,3.51-2.65,4.82c-3.85,3.6-9.62,5.58-14.34,7.78c-4.67,2.17-9.96,3.01-15.1,2.75c-10-0.51-21.27-2.89-28.12-10.68
		c-0.5-0.57-0.85-1.17-1.09-1.78c-39.75,16.92-39.81,66.93-50.86,99.56c-6.45,19.03-17.18,26.69-26.38,29.59
		c-0.03,7.28-0.17,14.56-0.85,21.82c-0.03,0.32-0.1,0.61-0.16,0.91c30.36,2.14,111.59,7.73,158.74,17.69
		c1.19,0.25,2.36,0.47,3.51,0.67c2.4-0.36,4.76-0.79,7.09-1.27C374.31,430.72,380.45,430.28,385.65,426.87z"/>
	<path class="st7" d="M171.94,356.44c0,0,15.14,14.16,18.89,27.57c3.75,13.41,3.77,19.83,3.77,19.83l-1.05,11.65l-2.79,11.16
		c0,0,13.87-2.85,24.56,0c10.69,2.85,44.47,11.16,68.42,13.35c23.95,2.19,59.78-1.64,74.37-6.21s31.21-14.72,41.35-33.81
		c10.15-19.09,10.44-41.32,11.65-49.45s-9.34-28.79-9.34-28.79l-32.07,10.12c0,0,2.85,32.36-18.96,42.05s-63.72-6.27-63.72-6.27
		s-54.89-19.96-63.51-20.67c-8.62-0.71-33.14,1.28-38.84,2.85S171.94,356.44,171.94,356.44z"/>
</g>
<g id="Layer_22">
	<path class="st8" d="M278.61,269.33c0,0,9.92,13.79,23.79,14.39c13.87,0.6,25.89-2.1,25.89-2.1s14.11,19.22,29.13,21.02
		s30.33-2.67,39.64,19.08c9.31,21.75,19.93,71.79-6.03,90.63c-25.95,18.85-103.84,13.76-112.41,11.58
		c-8.57-2.18-59.93-12.79-65.33-12.39c-5.41,0.4-13.91-52.75-39.58-54.65c7.3,6.1,22.57,29.09,20.72,38.31s-3.66,31.43-3.66,31.43
		s12.51-2.78,29.34,1.24s68.85,14.87,109.38,11.18s63.48-9.81,80.99-36.48c17.51-26.67,9.17-63.22,2.7-78.29
		c-6.47-15.07-21.86-35.07-21.86-35.07l-51.85-27.78c0,0-6.97,10.56-22.88,15.37C300.66,281.62,278.61,269.33,278.61,269.33z"/>
	<path class="st8" d="M230.4,348.31l2.82-9.07c0,0,57.82,23.76,88.15,22.86c30.33-0.9,48.73-25.22,45.24-46.24
		s20.89,43.13-13.37,56.55c-34.26,13.42-83.68-11-83.68-11L230.4,348.31z"/>
	<path class="st8" d="M232.85,303c0,0-14.17,30.27-41.8,32.97c-27.63,2.7-98.77-19.54-113.81-48.95s-13.5-60.12-13.5-60.12
		s-8.37,45.24,13.07,77.3s58.92,42.17,62.29,43c3.37,0.83,38.42,5.72,38.42,5.72s17.85-5.1,23.21-5.51
		c5.36-0.41,29.67,0.89,29.67,0.89l14.69-49.13L232.85,303z"/>
</g>
<g id="Layer_7">
	<path class="st1" d="M234.14,138.43l0.04,71.75c0,0-0.68,27.3,31.18,34.67c27.95,1.76,64.19-0.81,73.25-1.21
		c11.34-2.79,23.65-10.5,27.99-37.38c0.07-18.03-1.57-91.06-7.5-93.66c-5.94-2.6-62.09-4.77-62.09-4.77L234.14,138.43z"/>
	<path class="st1" d="M292.23,242.98c0,0-6.88,2.98-6.13,6.52c0.76,3.54-0.06,11.8-0.06,11.8l-8.66,3.01c0,0,6.34,12.25,26.02,12.91
		c19.68,0.66,28.3-8.73,28.3-8.73l7.75-7.03l-19.16-2.81c0,0-1.14-11.17-2.35-12.19s-4.47-2.68-4.47-2.68L292.23,242.98z"/>
</g>
<g id="Layer_17">
	<path class="st7" d="M343.93,121.73c0,0-7.33,17.92-3.26,33.61s16.29,39.72,12.02,55.61s-3.87,23.22-21.18,26.48
		c-17.31,3.26-37.39,5.63-37.39,5.63s20.15,3.26,20.73,7.67c0.58,4.42-6.64,8.61-6.64,8.61s19.03,1.51,17.6,5.38
		c-1.43,3.87-16.38,12.27-29.07,10.72s4.09,3.9,18.1,1.79c14.02-2.11,23.83-14.88,23.83-14.88l-19.06-3.98l-0.31-12.9l16.13-1.13
		l12.39-4.56c0,0,13.37-23.57,12.73-31.72c-0.64-8.15-2.3-21.08-2.3-21.08l-8.82-37.34l0.84-20.53l1.89-9.85L343.93,121.73z"/>
	<path class="st7" d="M230.07,139.01c0,0,16.88,7.15,45.21,3.69c28.32-3.46,31.94-10.59,31.94-10.59s31.42,1.22,36.51-1.02
		c5.09-2.24,5.83-11.06,5.83-11.06l-40.75,3.32l-30.2,6.93L230.07,139.01z"/>
	<path class="st7" d="M313.82,187.97h-2.65c-4.19,0-7.58-3.39-7.58-7.58v-12.85c0-4.19,3.39-7.58,7.58-7.58h2.65
		c4.19,0,7.58,3.39,7.58,7.58v12.85C321.4,184.58,318,187.97,313.82,187.97z"/>
	<path class="st7" d="M257.28,187.97h-2.27c-4.29,0-7.77-3.48-7.77-7.77v-12.47c0-4.29,3.48-7.77,7.77-7.77h2.27
		c4.29,0,7.77,3.48,7.77,7.77v12.47C265.05,184.49,261.57,187.97,257.28,187.97z"/>
	<path class="st9" d="M301.16,234.57l-9.31,0.63c-11.32,0.76-21.12-7.79-21.88-19.12l-0.43-6.36l50.31-3.4l0.43,6.36
		C321.04,224.01,312.48,233.81,301.16,234.57z"/>
</g>
<g id="Layer_18">
	<path class="st10" d="M145.05,134.89c4.73,2.92,0.19,8.1-1.76,11.15c-2.05,3.21-4.09,6.42-6.14,9.63"/>
	<path class="st10" d="M133.04,125.68c5,2.84,0.53,8.02-1.46,11.14c-2.08,3.26-4.15,6.52-6.23,9.77"/>
	<path class="st10" d="M117.74,120.36c5.41,1.93,2.48,7.1,0.98,10.64c-1.44,3.4-2.88,6.81-4.32,10.21"/>
	<path class="st10" d="M100.59,123.77c7.14,0.89,2.34,14.31,1.6,18.61"/>
	<path class="st10" d="M135.24,166.73c0,0-8.53-5.66-14.21,2.6"/>
	<path class="st10" d="M137.69,187.05c3.67-6.7,7.34-13.39,11.02-20.09c0.93-1.7,8.92-12.89,4.42-13.24"/>
	<path class="st10" d="M139.67,161.96c0,0,0.88-4.17-3.09-6.28"/>
	<path class="st10" d="M131.54,152.81c0,0-0.97-5.14-7.51-6.21"/>
	<path class="st10" d="M120.17,144.37c0,0-1.5-3.3-8.15-2.47"/>
	<path class="st10" d="M107.83,141.76c0,0-3.75-0.55-8.48,2.25"/>
	<path class="st10" d="M86.44,164.84c0,0,8.38,12.82,26.98,17.48s25.8,1.93,25.8,1.93"/>
</g>
<g id="Layer_19">
	<path class="st10" d="M147.55,394.47c0,0-13.12,3.22-18.09,3.94c-3.47,0.51-4.78-2.19-3.88-6.83"/>
	<path class="st10" d="M151.72,409.42l-18.4,4.37c-2.57,0.61-5.16-0.98-5.77-3.55l-0.25-1.06"/>
	<path class="st10" d="M163.55,419.31l-21.81,8.9c-2.44,1.03-5.25-0.11-6.28-2.54l-0.42-1"/>
	<path class="st10" d="M173.69,426.14l-15.29,11.12c-2.14,1.56-5.14,1.08-6.69-1.06l-0.64-0.88"/>
	<path class="st10" d="M193.02,416.1c0,0-4.36,10.58-19.32,10.04"/>
	<path class="st10" d="M133.03,372.4c2.2,4.07,11.49,3.25,15.43,3.65"/>
	<path class="st10" d="M154.24,368.89c-2.51,2.81-4.91,5.98-6.38,9.47"/>
	<path class="st10" d="M149.12,389.49c0,0-3.14,4.75,1.16,10.54"/>
	<path class="st10" d="M151.61,404.71c0,0-1.33,3.71,4.5,8.11"/>
	<path class="st10" d="M159.27,416.1c0,0,2.51,3.28,8.32,4.67"/>
	<path class="st10" d="M169.39,356.9c0,0,15.57,12.39,20.96,30.46c5.39,18.07-0.63,32.7-0.63,32.7"/>
</g>
<g id="Layer_9">
	<path class="st11" d="M269.56,217.69l50.05-5.56l-0.86,7.43c0,0-10.38-1.31-14.22-0.32c-3.83,0.99-11.23,5.21-11.23,5.21
		l-6.31,8.11l-0.02,1.94C286.96,234.49,271.93,231.61,269.56,217.69z"/>
	<path class="st12" d="M317.94,220.9c0,0-9.38-3.56-17.57-0.56c-8.19,3-13.4,12.96-13.4,12.96l2.69,1.39c0,0,18.61-1.39,19.51-2.19
		C310.09,231.69,317.94,220.9,317.94,220.9z"/>
	<polygon class="st1" points="268.9,209.67 269.69,218.36 319.61,211.67 318.75,205.8 	"/>
	<path class="st13" d="M300.49,234.01l-9.31,0.63c-11.32,0.76-21.12-7.79-21.88-19.12l-0.43-6.36l50.31-3.4l0.43,6.36
		C320.37,223.45,311.82,233.25,300.49,234.01z"/>
	<line class="st13" x1="269.48" y1="217.14" x2="318.75" y2="212.05"/>
	<path class="st13" d="M317.94,219.6c0,0-13.35-3.46-23.01,3.59c-9.66,7.05-7.97,11.3-7.97,11.3"/>
</g>
<g id="Layer_14">
	<path class="st14" d="M357.45,71.1c0,0-8.63-7.62-30.85-8.52s-38.67,3.53-38.67,3.53s-33.41,9.26-49.78,22.8
		s-22.95,30.23-24.97,42.35c-2.02,12.12,2.62,30.43,2.62,30.43s5.38,21.77,5.11,26.28c-0.26,4.51-1.77,9.26-2.99,11.06
		s-16.49,13.18-19.85,27.54s-2.66,28.52,3.87,37.23c6.53,8.71,22.95,18.81,22.95,18.81l13.29,4.56l11.21,1.95
		c0,0,7.37-9.91,9.38-11.9s16.48-11.94,16.48-11.94l10.2-4.37l0.36-16.07l-23.33-0.77c0,0-19.18-7.19-23.51-17.17
		c-4.32-9.99-4.77-20.09-4.77-20.09v-46.46l0.15-21.77c0,0,20.5,1.35,37.56-0.52c17.06-1.87,31.81-9.7,31.81-9.7l6.1-2.8
		c0,0,11.78,1.56,22.92,0.67c11.14-0.89,20.31-7.34,20.31-7.34s-3.74,12.22-4,18.2c-0.26,5.98,0.35,13.75,1.52,18.66
		c1.17,4.91,7.16,28.3,7.39,29.32c0.23,1.02,2.06,16.57,2.66,19.86s-3.27,15.94-3.27,15.94s-8.7,13.37-8.67,15.85
		s-1.48,13.86-0.83,15.87c0.65,2.01-1.05,10.13-2.21,11.55s-10.02,6.15-10.02,6.15l-3.65,1.75c0,0,5.99,14.36,22.82,20.79
		s26.58,2.62,32.7-0.9s7.21-8.91,7.21-8.91l5.64-17.28l7.88-6.7c0,0,9.74-3.74,13.05-14.46c3.31-10.72,2.41-24.18,2.41-24.18
		l-4.55-14.59c0,0-13.61-23.33-13.47-26.47c0.14-3.15,3.89-40.41,3.89-40.41s-1.5-14.75-4.94-25.56c-3.44-10.8-11.52-25-13.39-26.59
		C389.37,85.23,377.97,68.76,357.45,71.1z"/>
</g>
<g id="Layer_20">
	<path class="st3" d="M357.71,73.52c0,0,43.24,18.39,42.94,53.34c-0.3,34.95-13.21,32.21-10.81,46.94
		c2.4,14.73,21.38,28.73,21.35,49.51s-28.56,31.89-27.96,41.2c0.6,9.31-10.21,28.43-24.02,24.72c-13.81-3.7-27.21-16.13-27.21-16.13
		s16.55,23.13,39.59,23.48s28.47-28.92,28.47-28.92l15.91-14.02c0,0,8.86-2.46,7.52-20.89c-1.34-18.43-3.77-26.65-7.2-32.52
		c-3.44-5.87-11.32-12.23-9.71-30.84c1.61-18.61,3.3-31.81,1.39-44.47C406.06,112.26,390.44,65.71,357.71,73.52z"/>
	<path class="st3" d="M316.94,119.25c0,0,31.51,3.48,43.97-20.91c0,0,5.69,21.69-28.17,27.89c-16.03,0.62-23.94-0.34-23.94-0.34
		L316.94,119.25z"/>
	<path class="st3" d="M332.01,89.14c0,0,8.08,12.66-4.58,27.93c-12.65,15.27-18.62,8.84-18.62,8.84S334.83,108.66,332.01,89.14z"/>
	<path class="st3" d="M221.98,134.18l10.49,4.4l1.67,65.87c0,0-0.44,28.82,18.47,35.73c18.91,6.91,33.2,5.76,33.2,5.76l-0.32,13.39
		l-15.93,8.76c0,0-10.49,8.41-12.69,11.26c-2.2,2.84-8.53,9.32-8.53,9.32l-12.08-2.15c0,0-9.45-7.47-16.38-19.91
		c-5.82-10.45,5.05-24.64,8.71-29.43c9.63-12.58-2.1-48.68-0.3-63.38S221.98,134.18,221.98,134.18z"/>
</g>
<g id="Layer_21">
	<path class="st15" d="M218.19,131.84c0,0,6.4,8.04,46.85,5.04c40.46-3,51.29-19.38,60.36-27.66s6.6-23.68,6.6-23.68
		S310.2,140.02,218.19,131.84z"/>
	<path class="st15" d="M213.68,150.64c0,0,19.11,39.09,12.5,51.71s-23.12,27.74-22.82,43.6s17.92,34.32,17.92,34.32
		s-31.91-14.68-24.64-45.77c5.83-24.94,20.32-28.82,23.54-39.96C223.27,183.88,213.68,150.64,213.68,150.64z"/>
	<path class="st15" d="M354.33,117.29c0,0-5.58,21.16-4.77,29.3c0.8,8.14,12.32,47.86,11.08,58.36
		c-1.23,10.49-5.48,20.43-5.48,20.43s-6.8,12.16-7,16.3s2.9,17.51-1.83,21.4c-4.74,3.89-11.78,7.76-11.78,7.76s13.64,6.3,20.88-4.37
		c7.24-10.67-1.91-22.39,2.59-27.49c4.5-5.1,21.32-18.62,17.12-41.74S350.35,156.55,354.33,117.29z"/>
</g>
<g id="Layer_1">
	<path class="st13" d="M276.94,264.5c0,0,2.82,10.71,25.61,12.58s36.9-15.63,36.9-15.63"/>
	<path class="st13" d="M314.7,258.36c10.47,0.25,20.92,1.77,30.98,4.73"/>
	<path class="st13" d="M230.4,348.31c7.92-35.37,18.92-82.37,60.68-88.19"/>
	<path class="st13" d="M244.94,296.57c-35.61,22.36-93.61,24.36-114.61-17.64c-14-28,7.09-56.16,13-84c2.46-11.6-11-7-17-8
		c-7-1-13-2-19-4c-9-4-18-9-22.31-18.33c-4.15,7.4,0.05,0.11,0,0c-26.69,48.33-38.69,119.33,9.31,160.33c24,20,53.13,26,83.2,28"/>
	<path class="st13" d="M367.89,314.72c0,0,16.23,41.86-17.05,59.01c-20.75,10.69-73.19-8.72-103.42-20
		c-44.44-16.59-76.09,2.21-76.09,2.21s34.18,26.28,19.42,70.69c40.69-6.9,55.65,19.19,150.21,10.71
		c101.43-9.09,82.61-93.81,66.93-125.79c-7.35-14.98-16.58-22.33-16.58-22.33"/>
	<path class="st13" d="M348.16,239.57c-5.49,3.35-11.95,5.28-18.85,5.28h-58.9c-20.03,0-36.26-16.24-36.26-36.26v-69.57"/>
	<path class="st13" d="M332.01,90.93c0,0-1.69,41.62-65.74,47.32c-36.47,3.25-42.77-3.04-42.77-3.04"/>
	<path class="st13" d="M308.81,125.9c0,0,28.67,4.67,43.35-6.65c3.57-2.76,10.28-10.45,8.76-20.91"/>
	<path class="st13" d="M353.27,118.34c0,0-6.61,17.26-3.75,32.3c4.41,23.27,16.53,50.91,8.36,69.15s-11.83,13.29-9.97,33.21
		c1.82,19.55-17.8,15.75-15.9,20.1c6.08,13.91,27,23.76,39.08,23.48c23.95-0.57,24.94-18.04,27.04-24.37
		c6.66-19.97,22.94-9.09,25.37-39.45c2.64-33.09-19.42-39.07-17.7-61.83c1.18-15.67,5.4-31.97,2.48-44.73
		c-7.16-31.29-25.5-58.63-50.58-54.83c-17.68-20.91-147.29-9.88-145.2,72.08c0.43,16.83,15.38,47.06,4.46,56.59
		c-24.58,21.45-21.51,44.65-20.02,53.06c1.94,10.96,20.02,33.34,51.42,35.58"/>
	<path class="st13" d="M147.2,396.57l-16.57,3.28c-2.57,0.61-5.16-0.98-5.77-3.55l-0.25-1.06c-0.61-2.57,0.98-5.16,3.55-5.77
		l18.4-4.37"/>
	<path class="st13" d="M151.38,411.51l-18.4,4.37c-2.57,0.61-5.16-0.98-5.77-3.55l-0.25-1.06c-0.61-2.57,0.98-5.16,3.55-5.77
		l18.4-4.37"/>
	<path class="st13" d="M163.2,421.4l-21.81,8.9c-2.44,1.03-5.25-0.11-6.28-2.54l-0.42-1c-1.03-2.44,0.11-5.25,2.54-6.28l16.14-6.83"
		/>
	<path class="st13" d="M173.35,428.23l-15.29,11.12c-2.14,1.56-5.14,1.08-6.69-1.06l-0.64-0.88c-1.56-2.14-1.08-5.14,1.06-6.69
		l12.02-8.75"/>
	<path class="st13" d="M192.67,418.19c0,0-4.36,10.58-19.32,10.04"/>
	<path class="st13" d="M171.34,356.44c-18.55,2.59-39.18,15.38-39.18,15.38l0,0c-0.26,2.57,1.61,4.86,4.17,5.12l11.79,1.21"/>
	<path class="st13" d="M153.89,370.99c0,0-8.99,9.87-6.88,14.54"/>
	<path class="st13" d="M148.78,391.59c0,0-3.14,4.75,1.16,10.54"/>
	<path class="st13" d="M151.26,406.8c0,0-1.33,3.71,4.5,8.11"/>
	<path class="st13" d="M158.92,418.19c0,0,2.51,3.28,8.32,4.67"/>
</g>
<g id="Layer_13">
	<path class="st13" d="M285.82,261.33v-15.38"/>
	<path class="st13" d="M319.3,245.95v12.41"/>
</g>
<g id="Layer_5">
	<path class="st13" d="M131.39,148.52l8.82-12.76c1.31-2.05,4.03-2.65,6.08-1.35l0.84,0.54c2.05,1.31,2.65,4.03,1.35,6.08
		l-9.33,14.65"/>
	<path class="st13" d="M119.08,141.34l9.33-14.65c1.31-2.05,4.03-2.65,6.08-1.35l0.84,0.54c2.05,1.31,2.65,4.03,1.35,6.08
		l-9.33,14.65"/>
	<path class="st13" d="M104.96,142.38l8.69-19.82c0.95-2.24,3.53-3.29,5.77-2.34l0.92,0.39c2.24,0.95,3.29,3.53,2.34,5.77
		l-6.27,14.83"/>
	<path class="st13" d="M93.89,144.37l2.97-17.12c0.42-2.4,2.69-4,5.09-3.58l0.99,0.17c2.4,0.42,4,2.69,3.58,5.09l-2.33,13.46"/>
	<path class="st13" d="M137.24,166.73c0,0-8.53-5.66-14.21,2.6"/>
	<path class="st13" d="M86.81,167.72c0,0-3.13-14.14,7.08-23.36"/>
	<path class="st13" d="M139.69,187.05l17.46-31.84l0,0c-1.47-1.86-4.17-2.18-6.03-0.71l-13.81,10.9"/>
	<path class="st13" d="M141.67,161.96c0,0,0.88-4.17-3.09-6.28"/>
	<path class="st13" d="M133.54,152.81c0,0-0.97-5.14-7.51-6.21"/>
	<path class="st13" d="M122.17,144.37c0,0-1.5-3.3-8.15-2.47"/>
	<path class="st13" d="M109.83,141.76c0,0-3.75-0.55-8.48,2.25"/>
</g>
<g id="Layer_15">
	<path class="st2" d="M256.15,186.97L256.15,186.97c-4.31,0-7.81-3.5-7.81-7.81v-9.62c0-4.31,3.5-7.81,7.81-7.81h0
		c4.31,0,7.81,3.5,7.81,7.81v9.62C263.95,183.47,260.46,186.97,256.15,186.97z"/>
	<path class="st13" d="M241.22,161.69c-1.25-6.36,2.97-12.18,9.25-13.79c4.27-1.09,7.15-0.52,9.36,0.54"/>
	<path class="st1" d="M258.65,177.24L258.65,177.24c-2.16,0-3.91-1.75-3.91-3.91v-4.82c0-2.16,1.75-3.91,3.91-3.91l0,0
		c2.16,0,3.91,1.75,3.91,3.91v4.82C262.56,175.49,260.81,177.24,258.65,177.24z"/>
	<path class="st1" d="M254.74,180.68L254.74,180.68c-1.17,0-2.13-0.95-2.13-2.13v-2.62c0-1.17,0.95-2.13,2.13-2.13h0
		c1.17,0,2.13,0.95,2.13,2.13v2.62C256.87,179.73,255.92,180.68,254.74,180.68z"/>
	<path class="st2" d="M312.34,186.97L312.34,186.97c-4.31,0-7.81-3.5-7.81-7.81v-9.62c0-4.31,3.5-7.81,7.81-7.81l0,0
		c4.31,0,7.81,3.5,7.81,7.81v9.62C320.14,183.47,316.65,186.97,312.34,186.97z"/>
	<path class="st13" d="M307.22,145.34c2.5-1.66,5.99-2.55,10.83-1.33c5.05,1.28,10.47,7.47,9.19,13.83"/>
	<path class="st1" d="M314.84,177.24L314.84,177.24c-2.16,0-3.91-1.75-3.91-3.91v-4.82c0-2.16,1.75-3.91,3.91-3.91l0,0
		c2.16,0,3.91,1.75,3.91,3.91v4.82C318.75,175.49,317,177.24,314.84,177.24z"/>
	<path class="st1" d="M310.93,180.68L310.93,180.68c-1.17,0-2.13-0.95-2.13-2.13v-2.62c0-1.17,0.95-2.13,2.13-2.13l0,0
		c1.17,0,2.13,0.95,2.13,2.13v2.62C313.06,179.73,312.11,180.68,310.93,180.68z"/>
	<line class="st13" x1="244.39" y1="178.26" x2="249.54" y2="178.26"/>
	<line class="st13" x1="244.94" y1="183.22" x2="250.09" y2="183.22"/>
	<line class="st13" x1="318.75" y1="178.26" x2="323.9" y2="178.26"/>
	<line class="st13" x1="316.72" y1="183.22" x2="321.87" y2="183.22"/>
	<polyline class="st13" points="278.61,182.42 278.61,156.36 275.28,156.36 	"/>
	<polyline class="st13" points="277.39,187.97 269.25,182.42 283.06,182.42 	"/>
</g>
<g id="Layer_4">
</g>
<g id="Layer_10_copy">
	<g>
		<defs>
			<circle id="SVGID_3_" cx="252.62" cy="252.62" r="236.31"/>
		</defs>
		<clipPath id="SVGID_4_">
			<use xlink:href="#SVGID_3_"  style="overflow:visible;"/>
		</clipPath>
		<g class="st16">
			<polygon class="st17" points="102.45,440.28 135.89,308.58 -69.07,273.13 -59.27,399.82 			"/>
			<g>
				<g>
					<path class="st18" d="M22.94,339.93c16.97-4.53,33.94-9.05,50.9-13.58c-0.64-1.52-1.28-3.05-1.93-4.57
						c-8.45,4.85-16.9,9.7-25.36,14.56c-3.94,2.26-8,4.4-11.84,6.84c-3.33,2.12-6.18,4.87-6.52,9c-0.09,1.1,0.84,2.12,1.84,2.41
						c2.68,0.79,5.37,0.5,8.08,0.08c2.77-0.44,5.53-0.9,8.3-1.36c5.67-0.93,11.35-1.86,17.02-2.78c11.35-1.86,22.69-3.71,34.04-5.57
						c6.41-1.05,12.83-2.1,19.24-3.15c-0.44-1.61-0.89-3.21-1.33-4.82c-18.77,5.23-37.54,10.46-56.32,15.7
						c-5.29,1.48-10.59,2.95-15.88,4.43c-1.89,0.53-2.33,2.79-1.1,4.18c2.23,2.52,5.55,3.38,8.8,3.49
						c3.69,0.13,7.44-0.47,11.11-0.81c8.43-0.78,16.87-1.55,25.3-2.33c-0.42-1.55-0.84-3.11-1.26-4.66
						c-8.23,6.29-16.47,12.58-24.7,18.87c-1.13,0.86-1.57,2.09-0.9,3.42c1.63,3.23,5.38,4.11,8.71,4.12
						c4.15,0.01,8.35-0.5,12.5-0.78c9.04-0.6,18.09-1.2,27.13-1.8c-0.59-1.42-1.18-2.85-1.77-4.27c-3.58,3.61-8.03,6.03-12.99,7.14
						c-3.14,0.7-1.81,5.52,1.33,4.82c5.76-1.28,11.05-4.24,15.19-8.42c1.45-1.46,0.46-4.42-1.77-4.27
						c-8.39,0.56-16.77,1.11-25.16,1.67c-4.11,0.27-8.22,0.55-12.33,0.82c-1.36,0.09-2.8,0.2-4.13-0.05c-1.18-0.22-1.9-0.5-2.4-1.5
						c-0.3,1.14-0.6,2.28-0.9,3.42c8.23-6.29,16.47-12.58,24.7-18.87c0.9-0.69,1.47-1.66,1.15-2.82c-0.27-0.99-1.33-1.93-2.41-1.84
						c-7.94,0.73-15.87,1.46-23.81,2.19c-3.64,0.34-7.3,0.83-10.95,0.94c-2.48,0.08-5.16-0.05-6.91-2.02
						c-0.37,1.39-0.74,2.79-1.1,4.18c18.77-5.23,37.54-10.46,56.32-15.7c5.29-1.48,10.59-2.95,15.88-4.43
						c1.3-0.36,2.1-1.77,1.75-3.08c-0.39-1.42-1.74-1.96-3.08-1.75c-22.2,3.63-44.4,7.26-66.6,10.89c-3.04,0.5-6.08,1-9.13,1.49
						c-2.7,0.44-5.6,1.19-8.3,0.39c0.61,0.8,1.22,1.61,1.84,2.41c0.23-2.83,3.86-4.61,5.99-5.84c3.87-2.22,7.74-4.44,11.6-6.66
						c7.88-4.52,15.76-9.05,23.64-13.57c2.46-1.41,0.82-5.3-1.93-4.57c-16.97,4.53-33.94,9.05-50.9,13.58
						C18.5,335.93,19.82,340.76,22.94,339.93L22.94,339.93z"/>
				</g>
			</g>
			<polygon class="st19" points="102.45,440.28 135.89,308.58 -69.07,273.13 -59.27,399.82 			"/>
		</g>
	</g>
</g>
</svg>
